<?xml version="1.0" encoding="iso-8859-1"?>
<!-- Generator: Adobe Illustrator 19.0.0, SVG Export Plug-In . SVG Version: 6.00 Build 0)  -->
<svg version="1.1" id="Layer_1" xmlns="http://www.w3.org/2000/svg" xmlns:xlink="http://www.w3.org/1999/xlink" x="0px" y="0px"
	 viewBox="0 0 512 512" style="enable-background:new 0 0 512 512;" xml:space="preserve">
<g>
	<path style="fill:#F7B239;" d="M464.608,346.073c2.04,11.06,5.342,21.945,9.892,32.44h-290.97l-89.765-0.081
		c-9.932-0.497-19.435-3.436-27.729-8.389c-9.154-5.436-16.858-13.301-22.106-23.005c-4.845-8.939-7.261-18.804-7.261-28.655
		c0-9.865,2.416-19.73,7.261-28.655c0.148-0.268,0.295-0.537,0.456-0.805c10.617-18.938,30.655-30.682,52.412-30.682H474.5
		c-4.308,9.932-7.489,20.227-9.556,30.682c-0.121,0.591-0.228,1.181-0.336,1.772c-0.631,3.329-1.141,6.697-1.53,10.066
		c-0.403,3.342-0.685,6.697-0.846,10.066c-0.134,2.523-0.201,5.033-0.201,7.556c0,2.523,0.067,5.047,0.201,7.556
		c0.161,3.369,0.443,6.724,0.846,10.066C463.467,339.376,463.977,342.731,464.608,346.073z"/>
	<path style="fill:#F7B239;" d="M475.345,131.003c0,9.852-2.416,19.717-7.261,28.655c-5.261,9.704-12.965,17.569-22.106,23.005
		c-9.154,5.449-19.73,8.469-30.763,8.469H37.5c4.55-10.496,7.865-21.381,9.905-32.44c0.617-3.342,1.127-6.697,1.517-10.066
		c0.403-3.342,0.685-6.697,0.859-10.066c0.121-2.51,0.188-5.033,0.188-7.556c0-2.523-0.067-5.033-0.188-7.556
		c-0.174-3.369-0.456-6.724-0.859-10.066c-0.389-3.369-0.899-6.724-1.517-10.066c-2.04-11.06-5.342-21.958-9.905-32.454h377.715
		c22.052,0,42.346,12.08,52.868,31.474C472.929,111.273,475.345,121.138,475.345,131.003z"/>
</g>
<g>
	<path style="fill:#2BA5F7;" d="M507.088,383.426c3.033,3.033,4.912,7.234,4.912,11.865c0,9.274-7.516,16.777-16.777,16.777H163.843
		v-33.554h129.194H474.5h20.723C499.853,378.514,504.041,380.393,507.088,383.426z"/>
	<path style="fill:#2BA5F7;" d="M507.088,229.599c3.033,3.047,4.912,7.234,4.912,11.865c0,9.261-7.516,16.777-16.777,16.777H474.5
		H293.037H96.798c-22.065,0-42.359,12.08-52.868,31.487c-4.845,8.925-7.261,18.79-7.261,28.655c0,9.852,2.416,19.717,7.261,28.655
		c5.248,9.704,12.952,17.569,22.106,23.005c8.295,4.953,17.797,7.892,27.729,8.389l25.34,15.726l-25.34,17.909h-0.067
		c-25.864,0-49.298-10.482-66.25-27.434C10.496,367.669,0,344.262,0,318.384c0-51.754,41.956-93.697,93.697-93.697l202.575-20.223
		l122.044,20.223h76.907C499.853,224.687,504.041,226.566,507.088,229.599z"/>
</g>
<path style="fill:#F95428;" d="M418.316,37.306c51.741,0,93.684,41.943,93.684,93.697c0,25.877-10.482,49.285-27.434,66.25
	c-16.952,16.952-40.386,27.434-66.25,27.434H93.697h-76.92C7.516,224.687,0,217.184,0,207.91c0-4.631,1.879-8.832,4.912-11.865
	s7.234-4.912,11.865-4.912H37.5h181.462h196.253c11.033,0,21.609-3.02,30.763-8.469c9.14-5.436,16.844-13.301,22.106-23.005
	c4.845-8.939,7.261-18.804,7.261-28.655c0-9.865-2.416-19.73-7.261-28.669C457.561,82.94,437.268,70.86,415.216,70.86H218.963H37.5
	H16.777C7.516,70.86,0,63.344,0,54.083c0-4.631,1.879-8.818,4.912-11.865c3.033-3.033,7.234-4.912,11.865-4.912
	C16.777,37.306,418.316,37.306,418.316,37.306z"/>
<g>
	<path style="fill:#E09B2D;" d="M474.5,258.241c-4.308,9.932-7.489,20.227-9.556,30.682H44.386
		c10.617-18.938,30.655-30.682,52.412-30.682H474.5z"/>
	<path style="fill:#E09B2D;" d="M468.084,102.334c-0.148-0.272-0.307-0.527-0.46-0.792h0.004c-0.032-0.056-0.068-0.109-0.099-0.165
		c-0.224-0.384-0.451-0.764-0.686-1.131c-10.795-18.164-30.379-29.386-51.627-29.386H37.514c4.308,9.932,7.489,20.227,9.556,30.682
		h370.2c0.16,0.264,0.337,0.519,0.485,0.792c4.845,8.939,7.261,18.804,7.261,28.669c0,9.852-2.416,19.717-7.261,28.655
		c-5.261,9.704-12.965,17.569-22.106,23.005c-9.154,5.449-19.73,8.469-30.763,8.469h50.329c11.033,0,21.609-3.02,30.763-8.469
		c9.14-5.436,16.844-13.301,22.106-23.005c4.845-8.939,7.261-18.804,7.261-28.655C475.345,121.138,472.929,111.273,468.084,102.334z
		"/>
	<path style="fill:#E09B2D;" d="M93.764,336.007l28.025,25.045l-28.025,17.381c-9.932-0.497-19.435-3.436-27.729-8.389
		c-9.154-5.436-16.858-13.301-22.106-23.005c-1.933-3.543-3.463-7.248-4.617-11.033H93.764z"/>
</g>
<g>
	<path style="fill:#995C0D;" d="M464.608,290.695c-0.631,3.329-1.141,6.697-1.53,10.066c-0.403,3.342-0.685,6.697-0.846,10.066
		h-69.914v-20.133H464.608z"/>
	<path style="fill:#995C0D;" d="M464.608,346.073h-123.52v-20.133h121.145c0.161,3.369,0.443,6.724,0.846,10.066
		C463.467,339.376,463.977,342.731,464.608,346.073z"/>
	<path style="fill:#995C0D;" d="M119.695,103.314v20.133H49.781c-0.174-3.369-0.456-6.724-0.859-10.066
		c-0.389-3.369-0.899-6.724-1.517-10.066H119.695z"/>
	<path style="fill:#995C0D;" d="M170.926,138.56v20.133H47.406c0.617-3.342,1.127-6.697,1.517-10.066
		c0.403-3.342,0.685-6.697,0.859-10.066H170.926z"/>
</g>
<polygon style="fill:#F95428;" points="183.529,412.068 183.529,474.694 138.647,450.535 93.764,474.694 93.764,412.068 
	93.764,378.433 93.764,336.007 183.529,336.007 183.529,378.514 "/>
<g>
</g>
<g>
</g>
<g>
</g>
<g>
</g>
<g>
</g>
<g>
</g>
<g>
</g>
<g>
</g>
<g>
</g>
<g>
</g>
<g>
</g>
<g>
</g>
<g>
</g>
<g>
</g>
<g>
</g>
</svg>
