<svg xmlns="http://www.w3.org/2000/svg" xmlns:xlink="http://www.w3.org/1999/xlink" viewBox="0 0 750 301.94"><defs><linearGradient id="linear-gradient" x1="375" x2="375" y2="301.94" gradientUnits="userSpaceOnUse"><stop offset="0" stop-color="#22e1ef"/><stop offset="0.13" stop-color="#22dbef"/><stop offset="0.29" stop-color="#21caee"/><stop offset="0.49" stop-color="#1faeec"/><stop offset="0.7" stop-color="#1d87ea"/><stop offset="0.92" stop-color="#1b55e7"/><stop offset="1" stop-color="#1a42e6"/></linearGradient><linearGradient id="linear-gradient-2" y1="213.89" x2="750" y2="213.89" gradientUnits="userSpaceOnUse"><stop offset="0" stop-color="#22b5bc"/><stop offset="1" stop-color="#1a42e6"/></linearGradient><linearGradient id="linear-gradient-3" y1="214.89" x2="588.08" y2="214.89" xlink:href="#linear-gradient-2"/><linearGradient id="linear-gradient-4" x1="635" y1="189.48" x2="638" y2="189.48" xlink:href="#linear-gradient-2"/><linearGradient id="linear-gradient-5" x1="588" y1="123.21" x2="685" y2="123.21" xlink:href="#linear-gradient-2"/></defs><title>bg-header</title><g id="Layer_2" data-name="Layer 2"><g id="header"><path d="M750,0V218.36c-54,20.24-108,37.69-161.92,51.33q-43.22,10.92-86.42,18.43C334.19,317,166.92,303.83,0,218.36V0Z" fill="url(#linear-gradient)"/><path d="M750,125.85V194C499.55,315.27,249.39,358.92,0,194V148.31C302.4,366.42,428.27,201.09,750,125.85Z" opacity="0.48" fill="url(#linear-gradient-2)"/><path d="M588.08,262.29c-28.81,9.41-57.62,18.29-86.42,26.2C334.19,316.56,166.92,303.78,0,220.57V127.85C144.26,249.73,373,270.93,588.08,262.29Z" opacity="0.28" fill="url(#linear-gradient-3)"/><g opacity="0.23"><line x1="636.5" y1="239" x2="636.5" y2="139.95" fill="none" stroke-miterlimit="10" stroke-width="3" stroke="url(#linear-gradient-4)"/><path d="M672.23,107.16a37.57,37.57,0,1,0-71.46,0,48.5,48.5,0,1,0,71.46,0Z" fill="url(#linear-gradient-5)"/></g></g></g></svg>