<svg xmlns="http://www.w3.org/2000/svg" xmlns:xlink="http://www.w3.org/1999/xlink" viewBox="0 0 750 322.46"><defs><linearGradient id="linear-gradient" x1="400" y1="-367" x2="400" y2="-44.54" gradientUnits="userSpaceOnUse"><stop offset="0" stop-color="#39b54a"/><stop offset="1" stop-color="#00e537"/></linearGradient></defs><title>bg_academy</title><g id="Layer_2" data-name="Layer 2"><g id="Layer_7" data-name="Layer 7"><g opacity="0.2"><path d="M61.3-367H25L26.85-56.33c10.4-10.31,21.93-21.18,36.46-23,26-3.2,46.66,23.6,72.67,27C170.12-47.9,201.2-84.72,234.51-76c10,2.62,18.55,9.15,28.26,12.74C305.4-47.5,352.32-91.71,395.69-78.08c9.9,3.11,19,9.16,29.3,10.14,16.05,1.52,30.43-9.38,46.11-13.14,34.16-8.2,68.14,18.09,103.17,15.41,19.06-1.47,39-11.34,56.32-3.24,7.23,3.38,12.84,9.53,19.91,13.23,14.82,7.73,35.19,2,43.86-12.23a97,97,0,0,0,24.9,23.37l15.67-15.17,9.71,12.31C752.29-55.31,760.35-63.09,768-71l7-296Z" transform="translate(-25 367)" fill="url(#linear-gradient)"/></g></g></g></svg>