<svg xmlns="http://www.w3.org/2000/svg" xmlns:xlink="http://www.w3.org/1999/xlink" viewBox="0 0 751 322.46"><defs><linearGradient id="linear-gradient" x1="375" x2="375" y2="322.46" gradientUnits="userSpaceOnUse"><stop offset="0" stop-color="#4700d4"/><stop offset="1" stop-color="#9a00e9"/></linearGradient></defs><title>bg_academy_v3</title><g id="Layer_2" data-name="Layer 2"><g id="Layer_7" data-name="Layer 7"><g opacity="0.82"><path d="M36.3,0H0L1.85,310.67c10.4-10.31,21.93-21.18,36.46-23,26-3.2,46.66,23.6,72.67,27,34.14,4.43,65.22-32.39,98.53-23.68,10,2.62,18.55,9.15,28.26,12.74,42.63,15.77,89.55-28.44,132.92-14.81,9.9,3.11,19,9.16,29.3,10.14,16.05,1.52,30.43-9.38,46.11-13.14,34.16-8.2,68.14,18.09,103.17,15.41,19.06-1.47,39-11.34,56.32-3.24,7.23,3.38,12.84,9.53,19.91,13.23,14.82,7.73,35.19,2.05,43.86-12.23a97,97,0,0,0,24.9,23.37l15.67-15.17,9.71,12.31c7.65-7.91,15.71-15.69,23.36-23.6L750,0Z" fill="url(#linear-gradient)"/></g><polyline points="676.82 234.5 691 268 750.5 234.5 748.21 75.89 633 131 659.31 193.14" fill="none" stroke="#fff" stroke-miterlimit="10"/><line x1="742" y1="187" x2="688" y2="211" fill="none" stroke="#fff" stroke-miterlimit="10"/><line x1="692" y1="234" x2="745" y2="208" fill="none" stroke="#fff" stroke-miterlimit="10"/><line x1="659" y1="144" x2="742" y2="102" fill="none" stroke="#fff" stroke-miterlimit="10"/><line x1="661" y1="171" x2="738" y2="131" fill="none" stroke="#fff" stroke-miterlimit="10"/><line x1="733" y1="161" x2="678" y2="187" fill="none" stroke="#fff" stroke-miterlimit="10"/><line x1="672.43" y1="215.32" x2="654.14" y2="252.64" fill="none" stroke="#fff" stroke-miterlimit="10"/><path d="M654.14,252.64,652,257H597l-17.32-45.58a3.31,3.31,0,0,1,3.05-4.47l88.92-.9a3.31,3.31,0,0,1,3,4.76l-2.21,4.51" fill="none" stroke="#fff" stroke-miterlimit="10"/><path d="M662.62,252.64c9.5,1.62,15.38,3.87,15.38,6.36,0,5-23.51,9-52.5,9s-52.5-4-52.5-9c0-2.42,5.58-4.62,14.65-6.24" fill="none" stroke="#fff" stroke-miterlimit="10"/><circle cx="670" cy="232" r="16" fill="none" stroke="#fff" stroke-miterlimit="10"/></g></g></svg>