<svg xmlns="http://www.w3.org/2000/svg" xmlns:xlink="http://www.w3.org/1999/xlink" viewBox="0 0 621 249.01"><defs><linearGradient id="linear-gradient" x1="91" x2="91" y2="88.01" gradientUnits="userSpaceOnUse"><stop offset="0" stop-color="#55dbff"/><stop offset="1" stop-color="#6e15ff"/></linearGradient><linearGradient id="linear-gradient-2" x1="148.58" y1="147.01" x2="148.58" y2="249.01" xlink:href="#linear-gradient"/><linearGradient id="linear-gradient-3" x1="519.01" y1="167.01" x2="519.01" y2="249.01" xlink:href="#linear-gradient"/><linearGradient id="linear-gradient-4" x1="482.5" y1="149.01" x2="482.5" y2="176.01" xlink:href="#linear-gradient"/><linearGradient id="linear-gradient-5" x1="591.5" y1="82.01" x2="591.5" y2="183.01" xlink:href="#linear-gradient"/><linearGradient id="linear-gradient-6" x1="575.5" y1="116.01" x2="575.5" y2="249.01" xlink:href="#linear-gradient"/><linearGradient id="linear-gradient-7" x1="552" y1="108.2" x2="552" y2="176.01" xlink:href="#linear-gradient"/></defs><title>bg_pedagoy</title><g id="Layer_2" data-name="Layer 2"><g id="areas"><path d="M71,25V39h29V79H71V63H56V88H11V54H23V32H0V12.31A12.31,12.31,0,0,1,12.3,0H182V25Z" opacity="0.14" fill="url(#linear-gradient)"/><polygon points="98.15 249.01 98.15 205.01 128 205.01 128 184.01 113 184.01 113 147.01 167 147.01 167 184.01 199 184.01 199 249.01 98.15 249.01" opacity="0.14" fill="url(#linear-gradient-2)"/><g opacity="0.39"><polygon points="525.04 249.01 476 179.01 503 167.01 562.02 249.01 525.04 249.01" fill="url(#linear-gradient-3)"/><polygon points="470 176.01 495 165.01 470 149.01 470 176.01" fill="url(#linear-gradient-4)"/><polygon points="562 176.01 562 82.01 621 108.2 621 144.97 574 183.01 562 176.01" fill="url(#linear-gradient-5)"/><path d="M621,116v120.7A12.3,12.3,0,0,1,608.7,249H593.18L530,176h32l23-60Z" fill="url(#linear-gradient-6)"/><polygon points="542 122.01 562 108.2 562 176.01 542 122.01" fill="url(#linear-gradient-7)"/></g></g></g></svg>