<svg xmlns="http://www.w3.org/2000/svg" viewBox="0 0 675.89 684.64"><title>bicy_men</title><g style="isolation:isolate"><g id="Layer_2" data-name="Layer 2"><g id="Layer_17" data-name="Layer 17"><g id="bicy_men"><path d="M366.89,619l-1.33,2.93c-51.85-50.4-180.92-42.9-277.67-20.5v54.32c91.6,22.16,195.88,33.38,259.54,6l-.54,1.2c127.59,46.11,227.88,9.3,329-25C619.08,550.29,490.31,589.36,366.89,619Z" fill="#3bebf4" opacity="0.25"/><g id="bycycle"><path d="M462.74,260.45c-23.37-10-51-24.2-64.92-43-18.65-25.28-45.9-61.59-59.46-84.18-12.33-20.55-35.11-23-35.26-.7-.06,9.93,12.13,29.19,23.25,46.09,26.36,40.1,75.79,70.52,125.77,88.52l13.61-4.88Z" fill="#fc7575"/><path d="M315.49,519.61s-.74,3.43.75,4.07,48.2,1.54,48.89.85.41-1.79-2-2.34S315.49,519.61,315.49,519.61Z" fill="#757ad8"/><g id="pedals"><rect x="229.85" y="574.32" width="70.55" height="6.17" transform="translate(-332.87 362.73) rotate(-45.59)" fill="#0059ac"/><rect x="223.14" y="600.06" width="43.62" height="6.17" transform="translate(-55.8 25.79) rotate(-5.41)" fill="#0059ac"/></g><g id="lentgh"><polygon points="262.81 258.54 387.01 361.14 338.1 507.31 365.13 523.68 316.81 522.65 324.91 501.54 347.67 369.58 235.81 320.99 262.81 258.54" fill="#fd5e5a"/><polygon points="399.03 362.84 278.09 268.15 240.03 294.67 261.94 340.14 341.3 379.1 399.03 362.84" fill="#2a417f"/><path d="M322.73,502.6l-5.92,20,48.32,1-15.3-11.42s-8.42.88-12.84.88S327.86,502.6,322.73,502.6Z" fill="#c5c6fe"/></g><path d="M17.57,421.44c74.47-21.57,120.85-46,189.51-17.74,8.65,3.56,17.29,7.34,26.13,10.79l2.24-5.75c-18.85-8.4-34.21-17.1-52.45-22.68-56.8-16.41-113.62,6-170,19.4Z" fill="#2a8001"/><path d="M209.71,320.16l34.54,92.45c-3.62,1.68-7.92,2.35-11.85,3.58l-34.26-91.71Z" fill="#2a8001"/><path d="M243.52,328.49,184.9,325.4l-1-9.16a12.74,12.74,0,0,1,13-14.19c10.84.32,25.64,2.09,36.89,8.44C253.81,321.8,243.52,328.49,243.52,328.49Z" fill="#fb8603"/><g id="pedasl2"><rect x="321.7" y="522.65" width="32.8" height="6.17" fill="#0059ac"/><rect x="284.81" y="538.97" width="58.28" height="6.17" transform="translate(-249.7 268.76) rotate(-34.05)" fill="#0059ac"/></g><polygon points="118.53 527.75 215.19 429.75 241.25 425.58 239.63 419.62 211.48 425.83 113.85 523.73 118.53 527.75" fill="#fb8603"/><path d="M105.73,527.75A10.72,10.72,0,1,0,116.45,517,10.71,10.71,0,0,0,105.73,527.75Z" fill="#b9bcfc"/><path d="M313.76,554c1.36-13.81-8.21-25.94-21.38-27.1L126.09,512.3a10.06,10.06,0,0,0-3.57,19.62l160.9,44.27C298.21,580.15,312.27,569.15,313.76,554Z" fill="#3d2e3d"/><path d="M127.31,527l-.08-.73.34-.55,91.35-20.5-.26-1.15-90.2,20.25.72-1.15,76.12-48.49-.63-1-74,47.16,47-74.61-1-.63-48.37,76.71-1.44.92-.58-5.3L143,434.05l-1.15-.23-16,80.22-8.74-78.85-1.17.13,9.15,82.52-1.29,6.49L86.75,444l-1.06.49L122.85,525l-3.46-1.51L59.54,465.6l-.81.84,57.57,55.69L44,490.39l-.47,1.07,75.24,33,1.68,1.62-7.75,1.74L36,520l-.12,1.17L109,528.64,38.93,544.38l.26,1.15L112.72,529l4.34.44L50.17,572.07l.63,1L119,529.65l3.74.38-.35,1.75L78.55,601.22l1,.62L121.7,535l-15.26,76.49,1.15.23,15.86-79.5,1.24-2,1,1,1.15,2.5,9.05,81.6,1.17-.13-8.66-78.1L161.62,609l1.07-.49-34.62-75,61.8,59.79.82-.85-62.86-60.8-.12-1.11,6.3.64,76.84,33.71.47-1.07-73.51-32.25,82.7,8.4.11-1.17L134.31,530Z" fill="#4f80ff"/><path d="M211.28,587.4a105.43,105.43,0,1,1,10.65-104.89A105.42,105.42,0,0,1,211.28,587.4Zm-4.15-98.24a89.21,89.21,0,1,0-9,88.76A89.2,89.2,0,0,0,207.13,489.16Z" fill="#653870"/><path d="M218.94,588.75c-50.17,69.57-156.72,58.35-191.7-19.46C-7.93,491.05,55.07,404.39,139.94,413,225.29,421.66,268.84,519.55,218.94,588.75Zm-4.38-103.67c-29.75-66.2-120-75-162.2-16.46C9.9,527.5,47.39,610,119.2,617.33,191.42,624.66,244.16,550.92,214.56,485.08Z" fill="#e6f7f0"/><path d="M227.77,599.3a125.76,125.76,0,1,1,12.7-125.12A125.78,125.78,0,0,1,227.77,599.3Zm-5-117.19A106.41,106.41,0,1,0,212.08,588,106.4,106.4,0,0,0,222.82,482.11Z" fill="#552e5d"/><path d="M536.43,526.28l-.09-.83.38-.61,102.8-23.08-.29-1.29-101.51,22.8.82-1.3L624.2,467.4l-.71-1.12-83.3,53.07,52.94-84-1.12-.7L537.58,521,536,522l-.66-6,18.82-94.36-1.29-.26-18,90.28L525,423l-1.31.14L534,516l-1.46,7.3L490.79,432.9l-1.2.55,41.82,90.63-3.89-1.71-67.35-65.15-.92.95L524,520.84l-81.42-35.72-.53,1.21,84.67,37.15,1.89,1.82-8.72,2-86.24-8.76-.13,1.31,82.3,8.36L437,545.89l.29,1.28L520,528.59l4.89.5-75.28,48,.71,1.11L527,529.31l4.21.42-.39,2-49.28,78.15,1.12.7,47.44-75.23L513,621.4l1.29.26,17.84-89.46,1.4-2.22,1.17,1.13,1.3,2.81,10.18,91.83,1.32-.14-9.75-87.9L575,618.64l1.2-.56-39-84.43,69.56,67.28.91-.95L537,531.56l-.14-1.25L544,531,630.44,569l.53-1.21-82.73-36.3,93.07,9.46.13-1.31-97.13-9.87Z" fill="#4f80ff"/><path d="M625.09,587.53a111,111,0,1,1,11.2-110.41A111,111,0,0,1,625.09,587.53Zm-4.37-103.41a93.9,93.9,0,1,0-9.48,93.42A93.92,93.92,0,0,0,620.72,484.12Z" fill="#653870"/><path d="M633,591.14c-52.82,73.24-165,61.42-201.79-20.48-37-82.36,29.3-173.58,118.63-164.51C639.63,415.27,685.47,518.31,633,591.14ZM628.34,482C597,412.34,502,403.07,457.6,464.7c-44.69,62-5.23,148.86,70.36,156.53C604,628.94,659.49,551.33,628.34,482Z" fill="#e6f7f0"/><path d="M642.45,600.05a132.39,132.39,0,1,1,13.36-131.71A132.38,132.38,0,0,1,642.45,600.05Zm-5.21-123.36a112,112,0,1,0-11.31,111.44A112,112,0,0,0,637.24,476.69Z" fill="#552e5d"/><path d="M547.15,526.92a13,13,0,1,1-13.61-12.28A13,13,0,0,1,547.15,526.92Z" fill="#4f80ff"/><path d="M321.51,530.26c-1.11-1-4.26-3.31-5.34-2.33l-10.76-7.6c.55-1.35-2.63-3.56-4-4.26L289.87,515c-1.47.44-5,2-4.69,3.47l-12,5.52c-.89-1.16-4.39.49-5.68,1.32l-6.69,9.48c-.35,1.48-.73,5.34.65,5.79l-1.2,13.12c-1.44.19-1.77,4-1.69,5.58l4.86,10.54c1.11,1,4.26,3.3,5.34,2.33l10.77,7.6c-.56,1.34,2.62,3.56,4,4.26l11.56,1.06c1.46-.44,5-2,4.69-3.47l12-5.52c.89,1.16,4.4-.49,5.68-1.32l6.7-9.48c.35-1.49.73-5.34-.66-5.79l1.2-13.12c1.45-.2,1.77-4.06,1.7-5.59Zm-13.89-1.65c.32.23.61.48.91.72l-16,17.52L274.43,531A26.24,26.24,0,0,1,307.62,528.61Zm-36.56,6.3a.39.39,0,0,1,.08-.1l17.95,15.74-15.86,17.3A26.22,26.22,0,0,1,271.06,534.91Zm6.29,36.56c-.13-.09-.24-.19-.37-.29l15.88-17.32,17.52,15.37A26.25,26.25,0,0,1,277.35,571.47Zm36.57-6.29c-.07.09-.15.18-.22.28l-17.45-15.3,15.95-17.4A26.24,26.24,0,0,1,313.92,565.18Z" fill="#4f80ff"/><polygon points="535.07 523.18 527.46 523.49 447.66 309.54 455.88 305.86 535.07 523.18" fill="#4f80ff"/><path d="M451.67,284.3,433,291l15.14,30c-.28.08-88.55,21.07-182.5,72.26-29.34,15.62-57.53,34.18-84.17,54-28.18,21.1-57.72,49.19-74.31,68.9a13.23,13.23,0,0,0,20.26,17c9.61-9.95,41.41-53.74,114.72-102.59,1.06,1,68,36.92,68.16,37,5.12-6.65,19.13-32.95,69.15-68.79,45-32.19,77.6-44,81.33-47.36l.56,1.35,6.54,15.78,13-5.4ZM304.45,445l-48.69-23.33a821.19,821.19,0,0,1,171.09-81.52C383,365.71,333.12,402.78,304.45,445Z" fill="#38ab01"/><path d="M460.8,351.4a2.31,2.31,0,0,1-.19.14c-1.48,1.08-5.09,2.81-10.49,5.45h0c-.2-8.29-.9-23.63-3.44-35.66.1,0,.42-.12.75-.19.15,0,.31-.09.47-.12l.28-.07Z" fill="#fb8603" opacity="0.33" style="mix-blend-mode:multiply"/><path d="M209.64,568.06s27.38,35.08,28.59,35.08a2.19,2.19,0,0,0,1.8-.94L212.2,567.05S210.5,565.49,209.64,568.06Z" fill="#95baf9"/><path d="M261.94,274.86c-.55,1,48.21,162.31,48.21,162.31L245,566.35l6.84,29.07,11,4.46H240.44L215,566.35,235,559.16l39.34-131.89L183.79,271.51s0-1.21,0-3.36C215,269,229.41,269,261.94,274.86Z" fill="#fc7575"/><polygon points="201.08 248.18 183.83 268.15 183.79 271.51 185.11 288.4 261.94 431.87 314.32 427.3 268.11 273.28 201.08 248.18" fill="#4f80ff"/><polygon points="231.2 556.51 238.23 574.48 249.72 582.05 251.79 595.42 262.81 599.88 240.03 602.2 212.21 567.05 231.2 556.51" fill="#e3e4ff"/><path d="M294.68,96.2c12,.1,34.13,8.56,35.82,17.56,0,0,14.74,45.14,7.6,58.38-6.58,12.2-34.72,61-50.22,88.37A28.26,28.26,0,0,1,259,274.42a634.9,634.9,0,0,0-75.2-6.27C184.41,249.86,201.22,160.11,294.68,96.2Z" fill="#c5c6fc"/><g id="head_paint"><path d="M294.68,96.2s26.78-31,37.07-41.31l11.08,18-13.7,45.42c-2.83,9.4-11.66,7.77-19,1.24C302.54,112.76,294.68,105.8,294.68,96.2Z" fill="#fc7575"/><path d="M335.25,12.77c-.14-6.6-2.81-12-9.65-12.77V2.27C331.55,2.22,334.34,6.9,335.25,12.77Z" fill="#5c2c55"/><path d="M316.34,71.56c6.06-6.78,11.86-13.12,15.41-16.67l11.08,18L334,102.27l-1.77-.65C323.06,98.19,316.6,85.5,316.34,71.56Z" fill="#fd5e5a"/><path d="M381.16,45.22s-8,28.12-23.93,35.68S347.65,91,338,87.62,322,70,324.49,56.13c0,0,.57-28.81,18.68-30.69S386.09,28.79,381.16,45.22Z" fill="#fc7575"/><path d="M368.77,10.09c2.43,4.05,6.16,7.27,10.89,7.16,3.8-.09,7.26-1,8.37-3.78,2.83-7.08,8.82-7.4,14.48,0S400.62,33,395.59,33c0,0,1.1,10.23-7.88,10.23s-16.84-8.81-16.84-8.81-4.09,3.3-14.79.47-10.79-5.27-13.54-2.52-.93,18.42-5.27,18.42S335.77,44,332,45.9s-8.06,21.25-8.06,21.25-2.3,4.26-6.56,0c0,0,4.07,2.36,4.07-5s-9.28-27.86-2.83-42.34,12.59-7.08,17-9.76a33.71,33.71,0,0,1,17.14-4.63C358,5.34,365.65,4.88,368.77,10.09Z" fill="#5c2c55"/><path d="M399.35,40.54c-2.62,3.28-8.83,5.51-17.56,1.26,8.07,6.42,15.72,5.77,20.74,2Z" fill="#5c2c55"/><path d="M334.18,46.64s2.12-11.83-3.75-9.44-7.37,15.72-2.94,17.08S334.18,46.64,334.18,46.64Z" fill="#fc7575"/><path d="M332.73,40.54s1.28,8.26-1.74,10-4.52-3.35-3.24-6.95S331.69,37.85,332.73,40.54Z" fill="#fd5e5a"/><path d="M351.28,77.44s-7.77-4.76-9.85-9.39c0,0,.88,8,4,11.08Z" fill="#fff"/><path d="M375.25,56c-1.79-5.1-9.3-5.88-9.13-4a.74.74,0,0,0,.76.63c5.56-.48,7,3.76,7,3.8A.7.7,0,0,0,375.25,56Z" fill="#2846a6"/><path d="M359.94,50.4c1.62-.48-1.86-7.51-7.08-7.51-4.72.23-6.45-.53-6.45.7,0,2.46,9.54-3,12.67,6.34A.69.69,0,0,0,359.94,50.4Z" fill="#2846a6"/><path d="M354.22,67.37l5.72,1.35c2.28-7.25,1.95-9.31,3.24-9a108,108,0,0,1-2.26,10.66l-7-1.66A.69.69,0,0,1,354.22,67.37Z" fill="#2846a6"/><path d="M350.71,53.26a2.84,2.84,0,1,0,2.84-2.83A2.84,2.84,0,0,0,350.71,53.26Z" fill="#2846a6"/><path d="M365.41,63.17a2.83,2.83,0,1,0,2.83-2.83A2.83,2.83,0,0,0,365.41,63.17Z" fill="#2846a6"/></g><path d="M300.19,550a8.18,8.18,0,1,1-8.18-8.18A8.18,8.18,0,0,1,300.19,550Z" fill="#38ab01"/><path d="M454,267.79s-5.37-2.19-5.25-.68a8.34,8.34,0,0,0,.51,2.22c.88,1.85,4.37,5.49,6.35,4.88C458.13,273.43,454,267.79,454,267.79Z" fill="#f46060"/><path d="M374,307.68a2.74,2.74,0,0,1,.7-3.82c1.81-1.25,18-12.2,27.64-10.6a138.47,138.47,0,0,1,15.76,3.94,15.06,15.06,0,0,0,10.47-.64l27.62-12.22a1.14,1.14,0,0,0,0-2.1c-5.74-2.24-6.91-5.62-6.88-8.06.12-8.94,15.19-11.81,18.21-12.29a2.74,2.74,0,1,1,.86,5.42c-8,1.3-19.17,6.3-10.19,9.81a6.64,6.64,0,0,1,.23,12.25l-27.62,12.21a20.53,20.53,0,0,1-14.29.88,131.48,131.48,0,0,0-15.06-3.78c-6.31-1.06-19.19,6.65-23.63,9.7A2.74,2.74,0,0,1,374,307.68Z" fill="#6265a8"/><path d="M393.62,288.87l-4.25-1.18c-18.92-11.8-41.82-30-53.08-52.12-15.1-29.68-31-80.63-42-107.15-10-24.12-34.57-18.62-34.68,7.49-.05,11.66,3.8,37.67,10.9,59.07C286.35,242.73,378,298,378,298c2.4,2.4,7.87,10.26,10.17,10.26a97.79,97.79,0,0,0,10-1.47,2.15,2.15,0,0,0,1.45-.66,16,16,0,0,1,4.86-3.43c.45-.21,2.1-.61,2.53-.86C410.52,299.68,401,290.92,393.62,288.87Z" fill="#fc7575"/><path d="M454.89,274.57s-.85-4.79-2.77-7.44c-3.4-4.69,13.61-4.88,13.61-4.88h0a6.45,6.45,0,0,1,2.39,8.16c-.94,2-2.19,3.8-3.64,3.8-3.29,0-3.05,3.6-6.41,2.17S454.89,274.57,454.89,274.57Z" fill="#fc7575"/><polygon points="433.01 291 441.73 308.23 458.6 303 451.67 284.3 433.01 291" fill="#38ab01"/></g></g></g></g></g></svg>