<svg xmlns="http://www.w3.org/2000/svg" viewBox="0 0 76.39 143.31"><title>file-export</title><g id="Layer_2" data-name="Layer 2"><g id="Layer_1-2" data-name="Layer 1"><rect x="14.62" y="0.5" width="43.21" height="39.5" rx="5.24" ry="5.24" fill="#e7f7f7" stroke="#000" stroke-miterlimit="10"/><polyline points="16.47 38.41 29.73 18.92 41.13 35.57 47.23 23.8 54.38 36.79" fill="#e7f7f7" stroke="#000" stroke-miterlimit="10"/><circle cx="39.93" cy="14.15" r="4.64" fill="#e7f7f7" stroke="#000" stroke-miterlimit="10"/><line x1="36.43" y1="45.86" x2="36.43" y2="48.36" fill="none" stroke="#000" stroke-miterlimit="10"/><line x1="36.43" y1="52.8" x2="36.43" y2="77.22" fill="none" stroke="#000" stroke-miterlimit="10" stroke-dasharray="4.44 4.44"/><line x1="36.43" y1="79.44" x2="36.43" y2="81.94" fill="none" stroke="#000" stroke-miterlimit="10"/><rect x="15.77" y="97.5" width="55.35" height="44" fill="#f7f4e4" stroke="#000" stroke-miterlimit="10"/><polygon points="5.62 87.5 15.77 97.5 15.77 141.5 5.62 124.5 5.62 87.5" fill="#f7f4e4" stroke="#000" stroke-miterlimit="10"/><polyline points="71.12 97.5 59.13 87.5 5.62 87.5" fill="#f7f4e4" stroke="#000" stroke-miterlimit="10"/><polyline points="15.62 97.5 23.62 106.5 75.62 106.5 71.62 97.5" fill="#f7f4e4" stroke="#000" stroke-miterlimit="10"/><polyline points="15.62 97.5 10.62 106.5 0.62 97.5 5.62 87.5" fill="#f7f4e4" stroke="#000" stroke-miterlimit="10"/></g></g></svg>