<svg id="Capa_1" enable-background="new 0 0 512 512" height="512" viewBox="0 0 512 512" width="512" xmlns="http://www.w3.org/2000/svg"><g><g><path d="m300.087 453.443h201.913v-394.886h-492v394.886h202.132" fill="#f9f5f3"/><path d="m430.48 112.312h-349.041c-11.023 0-19.959 8.936-19.959 19.959v214.961c0 11.023 8.936 19.959 19.959 19.959h349.041c11.023 0 19.959-8.936 19.959-19.959v-214.961c0-11.023-8.936-19.959-19.959-19.959z" fill="#bedaff"/><path d="m369.523 249.044-74.615 57.516-96.925-78.76-136.503 105.71v13.721c0 11.023 8.936 19.959 19.959 19.959h288.083l.001.001h60.957c11.023 0 19.959-8.936 19.959-19.959v-30.486z" fill="#a0e4a5"/><circle cx="299.087" cy="193.254" fill="#ffc135" r="30.532"/></g><g><g><path d="m502 48.558h-492c-5.522 0-10 4.477-10 10v394.885c0 5.523 4.478 10 10 10h202.132c5.522 0 10-4.477 10-10s-4.478-10-10-10h-192.132v-374.885h472v374.885h-191.913c-5.522 0-10 4.477-10 10s4.478 10 10 10h201.913c5.522 0 10-4.477 10-10v-394.885c0-5.523-4.478-10-10-10z"/><path d="m265.229 449.62c-2.068-5.044-8.026-7.484-13.05-5.41-5.04 2.081-7.496 8.025-5.41 13.06 2.085 5.033 8.027 7.494 13.061 5.41 5.028-2.082 7.49-8.042 5.399-13.06z"/><path d="m460.438 347.232v-30.486-184.475c0-16.52-13.439-29.959-29.958-29.959h-349.042c-16.519 0-29.958 13.439-29.958 29.959v201.239 13.721.001c0 16.519 13.439 29.958 29.958 29.958h349.042c16.519 0 29.958-13.439 29.958-29.958zm-20 0c0 5.491-4.467 9.958-9.958 9.958l-349.042-.001c-5.491 0-9.958-4.467-9.958-9.958v-8.817l126.354-97.85 90.768 73.757c3.602 2.926 8.739 2.991 12.412.159l68.252-52.612 71.173 59.55v25.814zm-359-224.92h349.042c5.491 0 9.958 4.468 9.958 9.959v163.07l-64.499-53.966c-3.598-3.011-8.806-3.116-12.522-.25l-68.345 52.683-90.782-73.768c-3.608-2.932-8.757-2.99-12.43-.146l-120.38 93.224v-180.847c0-5.491 4.467-9.959 9.958-9.959z"/><path d="m299.087 233.787c22.35 0 40.532-18.183 40.532-40.533s-18.183-40.532-40.532-40.532-40.532 18.183-40.532 40.532 18.182 40.533 40.532 40.533zm0-61.065c11.321 0 20.532 9.211 20.532 20.532 0 11.322-9.211 20.533-20.532 20.533s-20.532-9.211-20.532-20.533c0-11.321 9.211-20.532 20.532-20.532z"/></g></g></g></svg>