<svg height="512pt" viewBox="0 0 512 512" width="512pt" xmlns="http://www.w3.org/2000/svg"><path d="m31.96875 0h448.066406c17.578125 0 31.964844 14.386719 31.964844 31.964844v448.066406c0 17.582031-14.386719 31.96875-31.96875 31.96875h-448.0625c-17.582031 0-31.96875-14.386719-31.96875-31.96875v-448.066406c0-17.578125 14.386719-31.964844 31.96875-31.964844zm0 0" fill="#e6e2e6"/><path d="m30.90625 480.03125v-448.066406c0-17.578125 14.386719-31.964844 31.96875-31.964844h-30.90625c-17.582031 0-31.96875 14.386719-31.96875 31.964844v448.066406c0 17.582031 14.386719 31.96875 31.96875 31.96875h30.90625c-17.582031 0-31.96875-14.386719-31.96875-31.96875zm0 0" fill="#d8d1d7"/><path d="m256.003906 31.847656c.011719-.035156.074219-.101562.113282-.117187v.003906l215.71875.109375c4.65625 0 8.433593 3.777344 8.433593 8.4375l-.003906 215.601562c-.046875.046876-.070313.070313-.117187.117188l-224.035157-.003906c-.042969-.042969-.070312-.066406-.113281-.113282zm0 0" fill="#ffe55a"/><path d="m287.023438 255.996094c-.046876-.042969-.070313-.066406-.117188-.113282l.003906-224.035156c.011719-.03125.054688-.074218.089844-.097656l-30.882812-.015625v-.003906c-.035157.015625-.101563.082031-.113282.117187l-.003906 224.035156c.046875.046876.070312.070313.113281.113282l224.035157.003906zm0 0" fill="#ffd500"/><path d="m255.996094 31.847656c-.011719-.035156-.074219-.101562-.113282-.117187v.003906l-215.71875.109375c-4.660156 0-8.433593 3.777344-8.433593 8.4375l.003906 215.601562c.042969.046876.070313.070313.117187.117188l224.035157-.003906c.042969-.042969.066406-.066406.113281-.113282zm0 0" fill="#ff646f"/><path d="m71.070312 31.84375h-30.90625c-4.65625 0-8.433593 3.777344-8.433593 8.4375l.003906 215.601562c.046875.046876.070313.070313.117187.117188h30.90625c-.042968-.046875-.070312-.070312-.117187-.117188l-.003906-215.601562c0-4.660156 3.777343-8.4375 8.433593-8.4375zm0 0" fill="#ff4755"/><path d="m256.003906 480.152344c.011719.035156.074219.101562.113282.117187v-.003906l215.71875-.109375c4.65625 0 8.433593-3.777344 8.433593-8.4375l-.003906-215.601562c-.046875-.046876-.070313-.070313-.117187-.117188l-224.035157.003906c-.042969.042969-.070312.066406-.113281.113282zm0 0" fill="#6c7fd9"/><path d="m286.90625 256.117188c.046875-.046876.070312-.070313.117188-.113282h-30.910157c-.042969.042969-.066406.066406-.113281.113282l.003906 224.035156c.011719.035156.074219.101562.113282.117187v-.003906l30.882812-.015625c-.035156-.023438-.082031-.066406-.089844-.097656zm0 0" fill="#4f66d1"/><path d="m62.636719 471.71875.003906-215.601562c.046875-.046876.074219-.070313.117187-.117188h-30.90625c-.046874.046875-.070312.070312-.117187.117188l-.003906 215.601562c0 4.660156 3.773437 8.433594 8.433593 8.4375h30.90625c-4.65625-.003906-8.433593-3.777344-8.433593-8.4375zm0 0" fill="#22a7ff"/><path d="m418.085938 352.234375h-99.902344c-8.761719 0-15.867188 7.105469-15.867188 15.867187 0 8.765626 7.101563 15.867188 15.867188 15.867188h99.902344c8.761718 0 15.867187-7.101562 15.867187-15.867188 0-8.761718-7.105469-15.867187-15.867187-15.867187zm0 0" fill="#4f66d1"/><g fill="#fbc700"><path d="m318.183594 159.734375h99.902344c8.761718 0 15.867187-7.105469 15.867187-15.871094 0-8.761719-7.101563-15.867187-15.867187-15.867187h-99.902344c-8.761719 0-15.867188 7.105468-15.867188 15.867187 0 8.765625 7.105469 15.871094 15.867188 15.871094zm0 0"/><path d="m368.132812 108.539062c8.730469 0 15.871094-7.113281 15.871094-15.867187 0-7.820313-5.859375-14.90625-14.304687-15.78125-9.195313-.941406-17.433594 6.339844-17.433594 15.78125 0 8.570313 6.964844 15.867187 15.867187 15.867187zm0 0"/><path d="m369.699219 179.265625c-9.3125-.945313-17.433594 6.433594-17.433594 15.78125 0 7.769531 5.832031 14.933594 14.3125 15.796875 9.273437.941406 17.425781-6.441406 17.425781-15.796875-.003906-7.78125-5.808594-14.890625-14.304687-15.78125zm0 0"/></g><path d="m255.996094 480.152344c-.011719.035156-.074219.101562-.113282.117187v-.003906l-215.71875-.109375c-4.660156 0-8.433593-3.777344-8.433593-8.4375l.003906-215.601562c.042969-.046876.070313-.070313.117187-.117188l224.035157.003906c.042969.042969.066406.066406.113281.113282zm0 0" fill="#60b8ff"/><path d="m193.367188 352.234375h-31.039063c-1.433594 0-2.59375-1.164063-2.59375-2.59375v-31.042969c0-8.542968-6.566406-15.894531-15.101563-16.296875-9.113281-.429687-16.636718 6.832031-16.636718 15.851563v31.488281c0 1.433594-1.160156 2.59375-2.59375 2.59375h-31.039063c-8.546875 0-15.898437 6.566406-16.300781 15.101563-.425781 9.113281 6.832031 16.636718 15.851562 16.636718h31.488282c1.433594 0 2.59375 1.160156 2.59375 2.59375v31.039063c0 8.542969 6.566406 15.898437 15.101562 16.296875 9.113282.429687 16.636719-6.832032 16.636719-15.847656v-31.488282c0-1.433594 1.160156-2.597656 2.59375-2.597656h31.488281c9.019532 0 16.28125-7.523438 15.851563-16.632812-.402344-8.535157-7.753907-15.101563-16.300781-15.101563zm0 0" fill="#0094fd"/><path d="m100.386719 367.335938c.398437-8.535157 7.753906-15.101563 16.296875-15.101563h-22.324219c-8.542969 0-15.894531 6.566406-16.296875 15.101563-.429688 9.109374 6.832031 16.632812 15.851562 16.632812h22.320313c-9.015625 0-16.277344-7.523438-15.847656-16.632812zm0 0" fill="#0083fd"/><path d="m150.320312 417.605469v-31.039063c0-1.433594-1.164062-2.59375-2.597656-2.59375h-22.320312c1.433594 0 2.59375 1.160156 2.59375 2.59375v31.039063c0 8.542969 6.566406 15.898437 15.101562 16.296875 4.699219.222656 8.964844-1.609375 12.003906-4.664063-2.957031-2.996093-4.78125-7.144531-4.78125-11.632812zm0 0" fill="#0083fd"/><path d="m324.636719 368.101562c0-8.761718 7.105469-15.867187 15.867187-15.867187h-22.320312c-8.765625 0-15.867188 7.105469-15.867188 15.867187 0 8.765626 7.101563 15.867188 15.867188 15.867188h22.320312c-8.761718 0-15.867187-7.101562-15.867187-15.867188zm0 0" fill="#314dca"/><path d="m324.636719 143.867188c0-8.765626 7.105469-15.871094 15.867187-15.871094h-22.320312c-8.765625 0-15.867188 7.105468-15.867188 15.871094 0 8.761718 7.101563 15.867187 15.867188 15.867187h22.320312c-8.761718 0-15.867187-7.105469-15.867187-15.867187zm0 0" fill="#e9b900"/><path d="m168.132812 145.695312c-1.007812-1.011718-1.007812-2.648437 0-3.660156l22.273438-22.269531c6.199219-6.199219 6.199219-16.246094 0-22.441406-6.195312-6.195313-16.246094-6.195313-22.441406 0l-22.269532 22.273437c-1.011718 1.007813-2.648437 1.007813-3.660156 0l-22.269531-22.273437c-6.195313-6.195313-16.246094-6.195313-22.441406 0-6.195313 6.195312-6.195313 16.242187 0 22.441406l22.273437 22.269531c1.007813 1.011719 1.007813 2.648438 0 3.660156l-22.273437 22.273438c-6.195313 6.195312-6.195313 16.242188 0 22.4375 6.195312 6.199219 16.246093 6.199219 22.441406 0l22.269531-22.269531c1.011719-1.011719 2.648438-1.011719 3.660156 0l22.269532 22.269531c6.195312 6.199219 16.246094 6.199219 22.441406 0 6.199219-6.195312 6.199219-16.242188 0-22.4375zm0 0" fill="#fc2b3a"/><path d="m119.644531 190.40625c-6.195312-6.195312-6.195312-16.242188 0-22.4375l22.273438-22.273438c1.011719-1.011718 1.011719-2.648437 0-3.660156l-22.273438-22.269531c-6.195312-6.199219-6.195312-16.246094 0-22.441406.019531-.019531.042969-.035157.058594-.050781-6.199219-6.140626-16.203125-6.125-22.378906.050781-6.199219 6.195312-6.199219 16.242187 0 22.441406l22.273437 22.269531c1.007813 1.011719 1.007813 2.648438 0 3.660156l-22.273437 22.273438c-6.199219 6.195312-6.199219 16.242188 0 22.4375 6.175781 6.179688 16.179687 6.195312 22.378906.054688-.015625-.019532-.039063-.035157-.058594-.054688zm0 0" fill="#e61f2d"/><path d="m374.589844 92.671875c0-4.4375 1.832031-8.382813 4.714844-11.234375-2.464844-2.457031-5.761719-4.148438-9.605469-4.546875-9.195313-.941406-17.433594 6.339844-17.433594 15.78125 0 8.570313 6.964844 15.867187 15.867187 15.867187 4.34375 0 8.292969-1.761718 11.167969-4.609374-2.921875-2.90625-4.710937-6.917969-4.710937-11.257813zm0 0" fill="#e9b900"/><path d="m374.589844 195.046875c0-4.414063 1.820312-8.371094 4.710937-11.238281-2.453125-2.449219-5.746093-4.140625-9.601562-4.542969-9.3125-.945313-17.433594 6.433594-17.433594 15.78125 0 7.769531 5.832031 14.933594 14.3125 15.796875 4.898437.496094 9.472656-1.34375 12.707031-4.558594-2.953125-2.949218-4.695312-7-4.695312-11.238281zm0 0" fill="#e9b900"/><path d="m150.394531 349.640625v-31.492187c0-4.367188 1.777344-8.3125 4.632813-11.183594-2.671875-2.707032-6.269532-4.472656-10.320313-4.664063-9.113281-.429687-16.636719 6.832031-16.636719 15.847657v31.492187c0 1.429687-1.160156 2.59375-2.59375 2.59375h22.324219c1.429688 0 2.59375-1.160156 2.59375-2.59375zm0 0" fill="#0083fd"/></svg>