<svg xmlns="http://www.w3.org/2000/svg" viewBox="0 0 513.54 413.14"><title>newester</title><g id="Layer_2" data-name="Layer 2"><g id="OBJECTS"><path d="M377.86,55.64A123.23,123.23,0,0,0,301.13,82.3a161.33,161.33,0,1,0,36.15,214A123.77,123.77,0,1,0,377.86,55.64Z" fill="#abefd0"/><path d="M405.92,212.53h0a16.3,16.3,0,0,0-4.52-1.13l-.16,0c-.46-.05-.92-.08-1.37-.09h-.19c-.46,0-.92,0-1.37,0h-.14l-.4,0,1.62-3.86c3.59-8.53-14.62-24.34-40.67-35.3-3.07-1.3-6.12-2.46-9.1-3.5-1.14-5-2.32-9.4-5-10-3.38-.8-4,4.22-4.09,7.2l-1.64-.44a16.47,16.47,0,0,1-2-6.91c-.27-5.57,1.83-14.44-3.36-16.9s-6,3.87-8.59,5.87-3.61-3.25-4.45-8.91-1.58-13.11-7.62-12.45-5.84,14.31-4.58,26.74a90.53,90.53,0,0,0,1.79,10.83c-2.53.87-4.29,2.23-5.07,4.09l-2.25,5.35a51.18,51.18,0,0,0,27.33,67h0a50.86,50.86,0,0,0,32.44,2.43l.35.11.22.06.42.13.25.07.52.14.21.06.79.22.15,0,.7.18.3.08.63.16.33.08.69.16.31.08,1,.24h0c7.33,1.65,18.06,3.25,27.58,1.51,8.67-1.59,16.51-10.07,17.47-18.91A13.46,13.46,0,0,0,405.92,212.53Zm-10.5,24.52a47.5,47.5,0,0,1-12,.42l-1.79-.16-.33,0-1.57-.19-.17,0c-.58-.07-1.15-.16-1.72-.24l-.24,0-1-.16a50.9,50.9,0,0,0,15.57-14.76l0,0,.19-.08c.68-.27,1.44-.54,2.24-.78l.19,0a18.94,18.94,0,0,1,2.53-.55l.2,0c.42,0,.85-.09,1.28-.11a8.39,8.39,0,0,1,3.56.56h0c2.45,1,3.42,2.64,3.14,5.2C405.11,230.43,400.66,236.09,395.42,237.05Z" fill="#403867" opacity="0.3"/><path d="M442.76,252.72H390a8,8,0,0,0-8,8V287a8,8,0,0,0,8,8h5v9.79l9.79-9.79h38a8,8,0,0,0,8-8V260.75A8,8,0,0,0,442.76,252.72Z" fill="#403867" opacity="0.3"/><path d="M204.7,69.78H164.85a4.78,4.78,0,0,0-4.77,4.77v27.52a4.78,4.78,0,0,0,4.77,4.77h15.48l4.45,7.69,4.44-7.69H204.7a4.78,4.78,0,0,0,4.77-4.77V74.55A4.78,4.78,0,0,0,204.7,69.78Z" fill="#403867" opacity="0.3"/><rect x="264.64" y="92.59" width="170.44" height="120.48" rx="4.95" ry="4.95" transform="translate(14.73 -30.06) rotate(5.03)" fill="#403867" opacity="0.3"/><path d="M83.65,183.12l147.28-53.05a5.61,5.61,0,0,1,7.1,3.17l38.94,96a14.82,14.82,0,0,1-8.62,19.49l-141.9,52.13a18.27,18.27,0,0,1-22.84-9.36L69.86,219.94a6.35,6.35,0,0,1,3.36-8.58L86.44,206l-6.11-15.57A5.61,5.61,0,0,1,83.65,183.12Z" fill="#403867" opacity="0.3"/><path d="M147.59,308.58c4.59-.79,17.1,0,25.37,5.75s12.9,20.05,12.9,20.05,4.58-17.71-10.93-37-42.64-14.2-42.64-14.2S117.53,252,95.66,252.73,63.88,263,63.88,263s14.3-4.06,16,1.27-5.18,5.32-12.19,5.18-19.35,4.07-25.8,11.78-11.36,20.19-11.36,20.19,15.42-14.16,35.33-14.3S90,296.24,90,298.77s-12.06-3.6-33.09.14C35.51,302.7,32.75,307.6,30.51,310s-4.77,10.94-5.33,17.95a80.61,80.61,0,0,0,0,12.76s9.54-13.88,25.38-15.56,21,5.6,20.47,7.71-9.53-1.68-24.54,2.8c-11.71,3.51-19.2,13.88-20.19,15.57s.28,7.57,2.11,12.75a46.86,46.86,0,0,0,5.33,10.1s5-8.27,12.47-9.95,9.12,1.12,8.7,4.9-9.26.7-13.74,7.85-3.37,10.24-.56,17.39a27.27,27.27,0,0,1,1.12,14.44s8-3.36,14.3-2,11.64,4.35,13.6,2,1.54-10.09-.28-15.7,4-11.92,7.29-5.19,4.91,14.86,3.79,18.7-1.86,4.48-1.82,5.32,17.14,2.81,24.53-.65,7.2-11.31,6.54-16.83-6.54-22.52-9.77-28.27S97,355,101.74,356s18,21.54,19.63,34.35c2,15.89-1.27,18.23-1.27,18.23s10,.56,18.37-4.2,12.06-6.73,13.18-14.59,2.53-23.27-9.81-40.38S124.17,328.07,121.93,325s10.26-4.77,19.07,4.76,17.1,20.75,19.63,34.5,2.24,21.87,2.24,21.87,12.62-13.74,15.14-25.8.56-24-7-32.53-16.4-13-21.45-14.3S143,309.37,147.59,308.58Zm7.27-17.38c5.27-.13,7.35,4.25,6.33,6.31s-7.86,0-7.86,0c-4.76-.47-7.1,0-7.19-2S149.6,291.34,154.86,291.2Zm-47-14.73c-3.18,1.69-12.06.56-15.52-3.64s1.78-5.8,6.17-5.42,9.35,3.92,9.35,3.92C110.34,272.84,111.08,274.79,107.91,276.47Z" fill="#403867" opacity="0.3"/><path d="M144.22,304.38c4.6-.79,17.11,0,25.38,5.75s12.9,20.05,12.9,20.05,4.58-17.72-10.94-37S128.92,279,128.92,279s-14.75-31.23-36.62-30.48-31.79,10.28-31.79,10.28,14.31-4.07,16,1.26-5.19,5.33-12.2,5.19S45,269.33,38.5,277s-11.36,20.19-11.36,20.19,15.43-14.16,35.34-14.3S86.59,292,86.59,294.56s-12-3.59-33.09.14c-21.36,3.8-24.11,8.7-26.36,11.08s-4.76,10.94-5.32,18a80.61,80.61,0,0,0,0,12.76s9.53-13.88,25.37-15.57,21,5.61,20.48,7.72-9.54-1.69-24.54,2.8c-11.72,3.5-19.21,13.88-20.19,15.56s.28,7.57,2.1,12.76a46.86,46.86,0,0,0,5.33,10.1s5.05-8.27,12.48-10S52,361,51.54,364.81s-9.25.7-13.74,7.85-3.36,10.24-.56,17.39a27.27,27.27,0,0,1,1.12,14.44s8-3.37,14.3-2,11.64,4.34,13.6,2,1.55-10.1-.28-15.7,4-11.92,7.29-5.19,4.91,14.86,3.79,18.69-1.86,4.49-1.82,5.33,17.15,2.8,24.53-.65,7.2-11.31,6.55-16.83-6.55-22.53-9.77-28.27-3-11.08,1.82-10.1,18,21.54,19.63,34.35c2,15.89-1.26,18.23-1.26,18.23s10,.56,18.37-4.21,12-6.73,13.18-14.58,2.52-23.27-9.82-40.38-17.66-21.31-19.91-24.4,10.27-4.76,19.07,4.77S154.74,346.3,157.26,360s2.24,21.88,2.24,21.88,12.62-13.75,15.15-25.8.56-24-7-32.53-16.41-13-21.46-14.3S139.62,305.17,144.22,304.38ZM151.5,287c5.27-.13,7.35,4.25,6.32,6.3s-7.85,0-7.85,0c-4.77-.46-7.1,0-7.2-2S146.23,287.13,151.5,287Zm-47-14.73c-3.18,1.68-12.06.56-15.52-3.64s1.78-5.8,6.17-5.43,9.35,3.93,9.35,3.93C107,268.63,107.72,270.59,104.54,272.27Z" fill="#7ba859"/><path d="M129.41,274.23A397.82,397.82,0,0,0,90.8,321.91c-19.35,28-52.44,82.58-52.44,82.58s46-68.84,59-85.11,36.44-42.17,36.44-42.17Z" fill="#3d5539"/><rect x="260.2" y="84.53" width="170.44" height="120.48" rx="4.95" ry="4.95" transform="translate(14.01 -29.7) rotate(5.03)" fill="#e7e6e9"/><path d="M435.16,97.16a5,5,0,0,0-4.5-5.36L270.74,77.74a5,5,0,0,0-5.37,4.49l-.83,9.44L434.33,106.6Z" fill="#545172"/><path d="M409.84,97.21a4,4,0,1,1-3.61-4.31A4,4,0,0,1,409.84,97.21Z" fill="#fffdff"/><path d="M420.73,98.17a4,4,0,1,1-3.61-4.31A4,4,0,0,1,420.73,98.17Z" fill="#fffdff"/><path d="M431.62,99.12a4,4,0,1,1-3.6-4.3A4,4,0,0,1,431.62,99.12Z" fill="#fffdff"/><rect x="271.9" y="120.84" width="89.73" height="52.66" transform="translate(14.11 -27.18) rotate(5.03)" fill="#f7c4a5"/><rect x="375.69" y="127.62" width="38.18" height="4.25" transform="translate(12.82 -33.93) rotate(5)" fill="#898192"/><rect x="374.84" y="137.27" width="38.18" height="4.25" transform="translate(13.66 -33.82) rotate(5)" fill="#898192"/><rect x="374" y="146.92" width="38.18" height="4.25" transform="translate(14.5 -33.71) rotate(5)" fill="#898192"/><rect x="373.15" y="156.57" width="38.18" height="4.25" transform="translate(15.33 -33.6) rotate(5)" fill="#898192"/><rect x="372.31" y="166.18" width="38.18" height="4.25" transform="translate(16.17 -33.49) rotate(5)" fill="#898192"/><rect x="371.47" y="175.83" width="38.18" height="4.25" transform="translate(17.01 -33.38) rotate(5)" fill="#898192"/><rect x="370.13" y="190.88" width="38.18" height="4.25" transform="matrix(1, 0.09, -0.09, 1, 18.32, -33.21)" fill="#898192"/><rect x="369.28" y="200.53" width="38.18" height="4.25" transform="translate(19.15 -33.1) rotate(5)" fill="#898192"/><rect x="319.89" y="186.47" width="38.18" height="4.25" transform="translate(17.74 -28.84) rotate(5)" fill="#898192"/><rect x="319.04" y="196.12" width="38.18" height="4.25" transform="translate(18.58 -28.73) rotate(5)" fill="#898192"/><rect x="269.11" y="182" width="38.18" height="4.25" transform="matrix(1, 0.09, -0.09, 1, 17.16, -24.43)" fill="#898192"/><rect x="268.26" y="191.65" width="38.18" height="4.25" transform="translate(17.99 -24.32) rotate(5)" fill="#898192"/><circle cx="302.61" cy="143.34" r="19.49" transform="translate(66.74 381.01) rotate(-70.56)" fill="#e58c7e"/><rect x="306.21" y="149.23" width="43.18" height="11.74" transform="translate(14.85 -28.12) rotate(5.03)" fill="#81a6d9"/><polygon points="311.2 145.96 325.34 125.78 335.75 148.11 311.2 145.96" fill="#7ba859"/><path d="M128.92,279s-14.75-31.23-36.62-30.48c-1.22,0-2.39.11-3.53.21l6.85,14.52c4.28.55,8.92,3.87,8.92,3.87,2.44,1.5,3.18,3.46,0,5.14a9.36,9.36,0,0,1-4.32.75L107,287.45a18.29,18.29,0,0,0,22.85,9.36L143,292a1.51,1.51,0,0,1-.18-.67c-.09-2,3.46-4.21,8.73-4.34a7.52,7.52,0,0,1,3.34.64l7.33-2.69C147.07,275.63,128.92,279,128.92,279Z" fill="#403867" opacity="0.3"/><path d="M129.07,174a12.63,12.63,0,0,0,14-16.76l-3.27-8.95L88.33,166.82Z" fill="#403867" opacity="0.3"/><path d="M87.07,171.42l147.28-53a5.61,5.61,0,0,1,7.1,3.17l38.95,96A14.83,14.83,0,0,1,271.77,237L129.88,289.12A18.29,18.29,0,0,1,107,279.76L73.29,208.24a6.34,6.34,0,0,1,3.36-8.59l13.22-5.34-6.12-15.56A5.61,5.61,0,0,1,87.07,171.42Z" fill="#fffdff"/><path d="M89.87,194.31l-13.22,5.34a6.34,6.34,0,0,0-3.36,8.59L107,279.76a18.25,18.25,0,0,0,6.63,7.57c14.45-2.61,6-23.19,6-23.19Z" fill="#d0cdd3"/><rect x="116.52" y="203.46" width="51.59" height="51.59" transform="translate(-75.4 69.84) rotate(-21.96)" fill="#81a6d9"/><rect x="122.74" y="235.49" width="51.59" height="18.35" transform="translate(-80.71 73.29) rotate(-21.96)" fill="#bbde95"/><polygon points="129.41 236.32 163.7 213.3 169.03 226.51 131.55 241.62 129.41 236.32" fill="#3d5539"/><polygon points="141.92 237.44 116.9 235.19 121.18 245.8 141.92 237.44" fill="#7ba859"/><path d="M134.82,219.83a6.36,6.36,0,1,1-8.28-3.52A6.37,6.37,0,0,1,134.82,219.83Z" fill="#ffc672"/><rect x="161.02" y="186.37" width="38.18" height="4.15" transform="translate(-57.4 81.02) rotate(-21.96)" fill="#898192"/><rect x="164.55" y="195.13" width="38.18" height="4.15" transform="translate(-60.42 82.97) rotate(-21.96)" fill="#898192"/><rect x="168.09" y="203.9" width="38.18" height="4.15" transform="translate(-63.44 84.93) rotate(-21.96)" fill="#898192"/><rect x="171.62" y="212.67" width="38.18" height="4.15" transform="translate(-66.46 86.89) rotate(-21.96)" fill="#898192"/><rect x="175.15" y="221.41" width="38.18" height="4.15" transform="translate(-69.47 88.84) rotate(-21.96)" fill="#898192"/><rect x="178.68" y="230.18" width="38.18" height="4.15" transform="translate(-72.5 90.8) rotate(-21.96)" fill="#898192"/><rect x="205.93" y="168.26" width="38.18" height="4.15" transform="translate(-47.37 96.5) rotate(-21.96)" fill="#898192"/><rect x="209.46" y="177.03" width="38.18" height="4.15" transform="translate(-50.39 98.45) rotate(-21.96)" fill="#898192"/><rect x="213" y="185.8" width="38.18" height="4.15" transform="translate(-53.41 100.41) rotate(-21.96)" fill="#898192"/><rect x="216.54" y="194.57" width="38.18" height="4.15" transform="translate(-56.44 102.37) rotate(-21.96)" fill="#898192"/><rect x="220.06" y="203.3" width="38.18" height="4.15" transform="translate(-59.45 104.32) rotate(-21.96)" fill="#898192"/><rect x="223.59" y="212.07" width="38.18" height="4.15" transform="translate(-62.47 106.28) rotate(-21.96)" fill="#898192"/><rect x="185.28" y="246.55" width="38.18" height="4.15" transform="translate(-78.14 94.45) rotate(-21.96)" fill="#898192"/><rect x="132.41" y="267.87" width="38.18" height="4.15" transform="translate(-89.95 76.23) rotate(-21.96)" fill="#898192"/><rect x="99.71" y="176.56" width="143.62" height="4.15" transform="translate(-54.35 77.09) rotate(-21.96)" fill="#898192"/><rect x="230.19" y="228.45" width="38.18" height="4.15" transform="translate(-68.11 109.93) rotate(-21.96)" fill="#898192"/><path d="M104.05,179.92l3,8.07c1.15,3,3,3.84,4.81,3.15,2-.76,2.81-2.58,1.68-5.59l-3-8.07,1.78-.67,3,7.95c1.57,4.19,0,6.73-3,7.84-2.79,1.05-5.49.24-7.07-4l-3-8Z" fill="#69e2a8"/><path d="M120.5,189.3l-5.12-13.63,1.92-.72,7,5.25a41.81,41.81,0,0,1,4.11,3.51l0,0c-.84-1.76-1.51-3.41-2.3-5.53l-2.14-5.7,1.65-.62,5.12,13.63-1.78.66L122,180.83a45.73,45.73,0,0,1-4.26-3.59l0,0c.75,1.68,1.4,3.3,2.25,5.57l2.19,5.82Z" fill="#69e2a8"/><path d="M130.45,170l5.12,13.63-1.76.66-5.11-13.63Z" fill="#69e2a8"/><path d="M148,178.47a9.48,9.48,0,0,1-3.36,2c-3.84,1.44-7.64.1-9.32-4.37a7.24,7.24,0,0,1,4.44-9.83,7.72,7.72,0,0,1,3.46-.61l.11,1.6a6.78,6.78,0,0,0-3,.46c-3.19,1.2-4.55,4-3.21,7.62,1.25,3.33,4,4.76,7.29,3.51a7.42,7.42,0,0,0,2.66-1.64Z" fill="#69e2a8"/><path d="M159,166.92c1.76,4.69-.16,8.24-3.64,9.55s-7.17-.49-8.72-4.62c-1.62-4.32,0-8.16,3.65-9.53S157.47,162.87,159,166.92Zm-10.49,4.19c1.09,2.91,3.65,4.93,6.42,3.89s3.4-4.21,2.24-7.3c-1-2.71-3.49-5-6.43-3.91S147.38,168.12,148.5,171.11Z" fill="#69e2a8"/><path d="M158.85,159.57a18.56,18.56,0,0,1,3.27-1.55c1.88-.71,3.22-.82,4.36-.37a3.61,3.61,0,0,1,2,2.19,3.82,3.82,0,0,1-1.26,4.44l0,.06a3.6,3.6,0,0,1,3,2,23.32,23.32,0,0,0,2.46,3.34l-1.82.68a18.11,18.11,0,0,1-2.13-2.91c-1.11-1.73-2.11-2.16-3.73-1.62l-1.65.62,2.21,5.9-1.76.66Zm4.09,5.54,1.79-.67c1.88-.71,2.69-2.19,2.11-3.74-.66-1.76-2.23-2-4.09-1.37a7.2,7.2,0,0,0-1.68.81Z" fill="#69e2a8"/><path d="M169.73,155.48a26.75,26.75,0,0,1,3.64-1.68c2.52-1,4.54-1,6.15-.38a6.72,6.72,0,0,1,3.76,4.18,7.68,7.68,0,0,1,0,6c-.8,1.75-2.64,3.23-5.29,4.22a30.21,30.21,0,0,1-3.26,1ZM176,166.87a11.9,11.9,0,0,0,1.82-.56c3.76-1.41,5-4.28,3.63-8-1.18-3.23-3.77-4.59-7.49-3.19a10,10,0,0,0-2,1Z" fill="#69e2a8"/><path d="M197.29,152.55c1.76,4.69-.16,8.24-3.64,9.55s-7.17-.49-8.72-4.62c-1.62-4.32,0-8.16,3.64-9.53S195.77,148.5,197.29,152.55Zm-10.49,4.19c1.09,2.91,3.64,4.93,6.42,3.89s3.4-4.21,2.24-7.31c-1-2.7-3.5-5-6.43-3.9S185.67,153.75,186.8,156.74Z" fill="#69e2a8"/><path d="M197.14,145.2a18.23,18.23,0,0,1,3.11-1.49,6.1,6.1,0,0,1,4.12-.42,3.05,3.05,0,0,1,2,2,3.46,3.46,0,0,1-1.18,3.86v0a3.76,3.76,0,0,1,4.1,2.37,4,4,0,0,1-.13,3.16c-.63,1.22-2,2.21-4.24,3a20.93,20.93,0,0,1-2.79.86Zm3.86,4.92,1.6-.6c1.86-.7,2.58-2.08,2.09-3.39-.6-1.6-2.05-1.77-3.83-1.11a8.13,8.13,0,0,0-1.51.71Zm2.45,6.53a10.39,10.39,0,0,0,1.5-.47c1.83-.69,3.25-2,2.51-4s-2.58-2-4.51-1.3l-1.45.54Z" fill="#69e2a8"/><path d="M213.75,149.41l.19,4.82-1.82.69-.48-15.37,2.12-.8,9.77,11.89-1.88.7-3.07-3.74Zm3.95-3-2.8-3.42c-.64-.78-1.15-1.51-1.64-2.22h0c.1.89.18,1.8.23,2.73l.15,4.44Z" fill="#69e2a8"/><polygon points="99.85 243.99 109.43 240.12 107.8 236.31 98.3 240.14 99.85 243.99" fill="#898192"/><polygon points="103.37 252.72 113.13 248.78 111.5 244.97 101.82 248.87 103.37 252.72" fill="#898192"/><polygon points="96.31 235.22 105.71 231.43 104.08 227.61 94.76 231.37 96.31 235.22" fill="#898192"/><polygon points="89.24 217.68 98.28 214.03 96.66 210.22 87.69 213.83 89.24 217.68" fill="#898192"/><polygon points="115.21 253.67 105.35 257.64 106.9 261.49 116.84 257.48 115.21 253.67" fill="#898192"/><polygon points="92.78 226.45 102 222.73 100.37 218.91 91.23 222.6 92.78 226.45" fill="#898192"/><polygon points="451.58 227.3 427.96 220.97 434.29 244.59 439.23 239.65 449.46 249.88 456.87 242.47 446.64 232.24 451.58 227.3" fill="#403867" opacity="0.3"/><polygon points="453.82 220.3 430.21 213.97 436.54 237.58 441.48 232.65 451.71 242.88 459.12 235.47 448.88 225.24 453.82 220.3" fill="#fffdff"/><path d="M73.81,350.72s.72.69,1.84,1.93S78.33,355.73,80,358a75.88,75.88,0,0,1,5.32,8.22c.88,1.55,1.7,3.21,2.5,4.91s1.51,3.48,2.13,5.28a51.45,51.45,0,0,1,1.63,5.45c.24.91.39,1.83.59,2.73s.29,1.8.43,2.68.19,1.76.28,2.61.08,1.7.12,2.51a45.27,45.27,0,0,1-.13,4.6c0,.71-.11,1.38-.2,2s-.15,1.25-.25,1.82c-.22,1.13-.39,2.12-.58,2.93-.42,1.6-.65,2.51-.65,2.51l.55-2.53c.17-.81.29-1.81.48-2.94.07-.57.11-1.18.17-1.82s.12-1.32.13-2c.07-1.42,0-2.94,0-4.56L92.31,390c-.12-.84-.24-1.69-.37-2.57s-.32-1.74-.52-2.62-.41-1.77-.68-2.66a55,55,0,0,0-1.8-5.29c-.67-1.74-1.47-3.44-2.28-5.09S85,368.51,84,367a72.16,72.16,0,0,0-5.49-7.83c-1.75-2.19-3.33-3.9-4.46-5.07s-1.81-1.76-1.81-1.76Z" fill="#3d5539"/><path d="M71,353.66l-.39-.37c-.27-.23-.67-.58-1.22-1a27.76,27.76,0,0,0-4.86-3,29,29,0,0,0-7.73-2.46,28.72,28.72,0,0,0-4.59-.37c-.79,0-1.58.06-2.38.08s-1.59.16-2.38.29A31.9,31.9,0,0,0,42.73,348c-.76.23-1.5.48-2.23.78s-1.44.56-2.13.9c-1.39.6-2.68,1.33-3.9,2s-2.34,1.4-3.33,2.12l-1.44,1-1.26,1c-.8.59-1.47,1.14-2,1.61l-1.71,1.45,1.65-1.52c.51-.5,1.17-1.07,1.94-1.7l1.22-1,1.41-1.06c1-.77,2.08-1.49,3.26-2.28s2.47-1.52,3.86-2.2a23.38,23.38,0,0,1,2.14-1,23.2,23.2,0,0,1,2.24-.89,33.27,33.27,0,0,1,4.76-1.36c.82-.18,1.65-.28,2.47-.41s1.65-.19,2.47-.19a29.8,29.8,0,0,1,4.84.18,30.6,30.6,0,0,1,13.65,5.24c.61.42,1.07.79,1.39,1.05s.5.44.49.42Z" fill="#3d5539"/><path d="M95.66,317.6s-.2-.19-.63-.55-1.08-.88-2-1.49a45.39,45.39,0,0,0-7.7-4.34,48.72,48.72,0,0,0-5.56-2.09,51.77,51.77,0,0,0-6.46-1.55,53.85,53.85,0,0,0-7.08-.74c-1.22-.07-2.44,0-3.67,0s-2.47.1-3.7.23a59.43,59.43,0,0,0-7.31,1.13c-1.19.25-2.38.51-3.53.85s-2.3.62-3.4,1c-2.23.69-4.32,1.54-6.31,2.33s-3.82,1.66-5.46,2.55l-2.4,1.22-2.1,1.2c-1.33.74-2.48,1.41-3.39,2l-2.9,1.83L25,319.26c.9-.63,2-1.33,3.33-2.11l2.08-1.26,2.36-1.29c1.63-.94,3.49-1.77,5.42-2.72s4.07-1.76,6.3-2.52c1.09-.43,2.24-.77,3.4-1.12s2.35-.67,3.55-1a60.14,60.14,0,0,1,7.39-1.35c1.25-.17,2.51-.23,3.76-.35s2.51-.11,3.76-.07a55.79,55.79,0,0,1,7.29.55,54.75,54.75,0,0,1,6.71,1.42,49.84,49.84,0,0,1,5.81,2,48.12,48.12,0,0,1,8.18,4.31c.94.62,1.64,1.16,2.13,1.53s.75.62.74.61Z" fill="#3d5539"/><path d="M93.27,323.4s1.32.56,3.44,1.73a76.3,76.3,0,0,1,8.48,5.39c1.68,1.21,3.45,2.61,5.25,4.16s3.62,3.28,5.43,5.14a73.61,73.61,0,0,1,5.19,6.06,71.53,71.53,0,0,1,4.62,6.82,67.44,67.44,0,0,1,3.69,7.36c.52,1.25,1,2.49,1.45,3.75.22.63.44,1.26.65,1.88l.54,1.87c.17.62.34,1.24.52,1.85s.26,1.23.4,1.84l.39,1.79c.12.6.19,1.19.28,1.78.41,2.32.56,4.55.74,6.6,0,1,.06,2,.08,2.95a26.2,26.2,0,0,1,0,2.66c-.09,1.67-.06,3.13-.22,4.32-.23,2.38-.36,3.75-.36,3.75s.1-1.37.27-3.76c.13-1.19.06-2.65.1-4.31,0-.83,0-1.72-.06-2.65s-.1-1.91-.16-2.93c-.23-2-.43-4.25-.9-6.55-.11-.57-.19-1.16-.33-1.74s-.28-1.18-.43-1.78-.29-1.19-.44-1.8-.37-1.21-.56-1.82-.39-1.22-.58-1.84l-.69-1.83c-.43-1.24-1-2.45-1.53-3.66a64.63,64.63,0,0,0-3.81-7.15,67.45,67.45,0,0,0-4.71-6.57,68.63,68.63,0,0,0-5.24-5.82c-1.81-1.77-3.63-3.43-5.44-4.89s-3.56-2.79-5.24-3.93a74.06,74.06,0,0,0-8.38-5c-2.11-1.09-3.32-1.57-3.32-1.57Z" fill="#3d5539"/><path d="M110.15,298.67a32.09,32.09,0,0,0-1.91-2.75c-.64-.86-1.47-1.87-2.45-3s-2.14-2.38-3.49-3.65a55.28,55.28,0,0,0-10-7.69,50.84,50.84,0,0,0-6.39-3.21,46.42,46.42,0,0,0-7-2.28l-1.81-.42-1.84-.3c-1.21-.24-2.44-.31-3.66-.43s-2.44-.1-3.64-.15-2.38.08-3.55.11-2.3.24-3.43.35-2.19.37-3.25.54-2.07.44-3,.68-1.94.45-2.83.76c-1.79.57-3.44,1.07-4.85,1.66s-2.67,1-3.66,1.49l-3.14,1.44,3.1-1.52c1-.52,2.21-1,3.63-1.6s3-1.18,4.82-1.8c.88-.34,1.84-.57,2.82-.85s2-.58,3-.77,2.15-.49,3.28-.64,2.27-.34,3.45-.45,2.38-.2,3.6-.21,2.46-.06,3.71,0,2.5.13,3.75.34l1.88.25,1.86.38a47.89,47.89,0,0,1,7.27,2.13A52.85,52.85,0,0,1,93,280.24a57,57,0,0,1,10.56,7.64c1.42,1.27,2.64,2.54,3.71,3.67s1.93,2.18,2.63,3.06,1.22,1.58,1.57,2.08c.18.26.31.45.41.58l.13.2Z" fill="#3d5539"/><path d="M109.75,298s1.38.42,3.66,1.32a100.56,100.56,0,0,1,9.26,4.21c1.87,1,3.85,2.07,5.92,3.29s4.2,2.61,6.35,4.12c1.08.74,2.14,1.55,3.23,2.34s2.15,1.66,3.2,2.55,2.12,1.78,3.14,2.73,2,1.9,3,2.88,1.94,2,2.9,3,1.83,2.09,2.73,3.13,1.72,2.14,2.52,3.22,1.59,2.15,2.3,3.25,1.43,2.16,2.06,3.25,1.26,2.15,1.82,3.2,1.07,2.11,1.58,3.11l1.33,3c.44.94.76,1.89,1.11,2.78s.68,1.72.92,2.53c.5,1.63,1,3,1.28,4.2l.94,3.7s-.38-1.33-1-3.67c-.33-1.17-.85-2.55-1.38-4.16-.27-.8-.64-1.62-1-2.5s-.7-1.81-1.17-2.74l-1.39-2.93c-.54-1-1.09-2-1.65-3s-1.25-2.07-1.89-3.14-1.41-2.09-2.13-3.17-1.56-2.09-2.35-3.16-1.71-2.07-2.57-3.12-1.83-2-2.78-3-1.91-2-2.94-2.91-2-1.88-3.07-2.76-2.1-1.77-3.16-2.61-2.16-1.63-3.21-2.43-2.16-1.53-3.24-2.24c-2.16-1.43-4.29-2.72-6.35-3.89s-4-2.19-5.91-3.09a99.16,99.16,0,0,0-9.16-3.89c-2.27-.83-3.55-1.18-3.55-1.18Z" fill="#3d5539"/><path d="M357.18,265.3l-2.24-8.78s-23.93-6.26-41.88-2.71-34.4,13.36-34.4,13.36-11-1.87-20,5.61a72.84,72.84,0,0,0-38.22-1.12c-27.4,6.75-42.25,19.89-42.25,19.89l2.36,9.34L188,304s1.33,17.42,11.05,23.59,31.6,4.32,45-1.64c13-5.79,16.45-12.36,17.38-22.59a129.48,129.48,0,0,0,.42-19.14,10.86,10.86,0,0,1,7.76-6.08,16.17,16.17,0,0,1,10.12,1.52s3.06,15.91,10,22.5c7.95,7.57,18.87,11.35,34.91,7.25,15.72-4,25.28-7.75,27.25-13.95s0-25.27,0-25.27Z" fill="#403867" opacity="0.3"/><path d="M262.42,267.6a72.72,72.72,0,0,0-38.22-1.12C196.8,273.23,182,286.36,182,286.36l2.36,9.35,7.42,3.08s1.33,17.41,11.05,23.58,31.6,4.33,45-1.64c13-5.79,16.45-12.36,17.38-22.59A129.36,129.36,0,0,0,265.6,279a10.81,10.81,0,0,1,7.76-6.08,16.13,16.13,0,0,1,10.11,1.52s3.07,15.91,10,22.5c7.95,7.57,18.87,11.35,34.91,7.25,15.72-4,25.27-7.76,27.24-13.95s0-25.27,0-25.27l5.34-4.86-2.24-8.79s-23.93-6.26-41.88-2.7S282.42,262,282.42,262,271.39,260.12,262.42,267.6Z" fill="#545172"/><path d="M197.15,289.23l4.34,18.93s3.57,10,16.45,9.5,30.11-3.51,36.17-12.67c4.75-7.18,2.8-21.7,1.73-27.65a3.66,3.66,0,0,0-3.19-3c-8.33-.94-34.44-2.56-54,11A3.71,3.71,0,0,0,197.15,289.23Z" fill="#cddbf0"/><path d="M290.06,269.63a3.73,3.73,0,0,1,1.85-4.25c5.11-2.73,17-8.55,27.85-9.93a70.43,70.43,0,0,1,23.1.94,3.72,3.72,0,0,1,2.87,3c1.18,6.36,4.13,23.57,2.31,27.51-2.24,4.84-26.92,12.51-38.14,10.08C299.16,294.62,295.45,290.32,290.06,269.63Z" fill="#cddbf0"/><g opacity="0.2"><path d="M222.26,275.63l-21.55,29.14.78,3.39s3.19,8.91,14.34,9.49L248.15,274A98.84,98.84,0,0,0,222.26,275.63Z" fill="#fffdff"/><path d="M257.14,292.38a78.37,78.37,0,0,0-1.3-15,3.63,3.63,0,0,0-1.06-2l-31,41.91a75.27,75.27,0,0,0,17.62-3.63Z" fill="#fffdff"/></g><g opacity="0.2"><path d="M319.76,255.45a64.31,64.31,0,0,0-13.55,3.5l-13.87,18.74c3.3,10.5,6.42,15,11.75,17.44l29.61-40A70.35,70.35,0,0,0,319.76,255.45Z" fill="#fffdff"/><path d="M345.73,259.36a3.72,3.72,0,0,0-2.87-3c-.6-.13-1.33-.27-2.13-.41l-30.37,41c4.09.77,9.81.3,15.57-.85l21.19-28.65C346.62,264.25,346.09,261.3,345.73,259.36Z" fill="#fffdff"/></g><path d="M238.58,277s9.33-.49,10.38,4.34-5.19,6.13-11.85,5.49S227.44,285,226.59,282,231.33,277,238.58,277Z" fill="#fffdff"/><path d="M222.39,282.37a3.58,3.58,0,1,1-3.58-3.58A3.57,3.57,0,0,1,222.39,282.37Z" fill="#fffdff"/><path d="M332.52,259.09s9.33-.49,10.38,4.35-5.19,6.12-11.85,5.48-9.67-1.82-10.51-4.85S325.28,259,332.52,259.09Z" fill="#fffdff"/><path d="M316.33,264.42a3.58,3.58,0,1,1-3.58-3.58A3.57,3.57,0,0,1,316.33,264.42Z" fill="#fffdff"/><path d="M337.3,349.67a25.23,25.23,0,0,0-11.65,2.84,18.29,18.29,0,0,0-35.07,7.25,17.9,17.9,0,0,0,.28,3h-.28a15.26,15.26,0,0,0-15.26,15.26h87a25.21,25.21,0,0,0-25-28.38Z" fill="#cddbf0"/><path d="M403.63,10.72a33,33,0,0,1,15.24,3.72,23.9,23.9,0,0,1,45.54,13.47l.36,0a20,20,0,0,1,20,20H370.86a34.75,34.75,0,0,1-.26-4.11A33,33,0,0,1,403.63,10.72Z" fill="#cddbf0"/><path d="M399.14,206.17h0a16.14,16.14,0,0,0-4.52-1.14l-.17,0c-.46,0-.91-.07-1.37-.09h-.19c-.46,0-.91,0-1.36,0h-.15l-.39,0,1.62-3.85c3.59-8.54-14.62-24.35-40.67-35.31q-4.62-1.94-9.11-3.5c-1.13-5-2.31-9.39-5-10-3.39-.8-4,4.22-4.09,7.2l-1.64-.43a16.51,16.51,0,0,1-2-6.91c-.27-5.57,1.82-14.44-3.37-16.91s-6,3.87-8.58,5.87-3.62-3.25-4.45-8.91-1.58-13.1-7.62-12.44-5.85,14.3-4.58,26.73a90.31,90.31,0,0,0,1.78,10.83c-2.53.88-4.28,2.24-5.06,4.1L296,166.75a50.91,50.91,0,0,0-2,34l111,9.76A14.6,14.6,0,0,0,399.14,206.17Z" fill="#403867" opacity="0.3"/><circle cx="291.25" cy="149.71" r="4.83" fill="#403867" opacity="0.3"/><path d="M352.9,158.73a4,4,0,1,0-4-4A4,4,0,0,0,352.9,158.73Z" fill="#403867" opacity="0.3"/><path d="M333.19,127.73a3,3,0,1,0-3-3A3,3,0,0,0,333.19,127.73Z" fill="#403867" opacity="0.3"/><path d="M313.05,104.46a6.39,6.39,0,1,0-6.38-6.39A6.39,6.39,0,0,0,313.05,104.46Z" fill="#403867" opacity="0.3"/><path d="M357.44,233.91l2.9-8.49c.17.06,18.11,6.07,31.82,3.56,5.23-1,9.68-6.62,10.16-11,.28-2.57-.69-4.18-3.14-5.21h0C395,211,388.48,213.81,386.54,215L382,207.22c1.16-.69,11.59-6.57,20.65-2.76h0a13.47,13.47,0,0,1,8.58,14.45c-1,8.83-8.8,17.31-17.47,18.9C377.74,240.74,358.26,234.19,357.44,233.91Z" fill="#e58c7e"/><path d="M380.16,229.4a92.36,92.36,0,0,1-19.82-4l-2.9,8.49a90.18,90.18,0,0,0,8.76,2.39A51.49,51.49,0,0,0,380.16,229.4Z" fill="#935771"/><path d="M382,207.22l4.55,7.73a22.1,22.1,0,0,1,9.07-2.78,50.62,50.62,0,0,0,2.32-4.8l1.61-3.84C391.35,201.93,383,206.61,382,207.22Z" fill="#935771"/><path d="M326.84,232.07h0a51.19,51.19,0,0,1-27.33-67l2.25-5.34,94.35,39.7-2.25,5.34A51.18,51.18,0,0,1,326.84,232.07Z" fill="#e58c7e"/><path d="M314.67,171.33l2.67-4-8.94-6-2.67,4a42.18,42.18,0,0,0,11.43,58.56h0a43.25,43.25,0,0,0,4.67,2.72A42.19,42.19,0,0,1,314.67,171.33Z" fill="#fffdff" opacity="0.2"/><path d="M377.47,203.56l1.77-4.44,10,4-1.77,4.44a42.19,42.19,0,0,1-54.81,23.59h0a43.8,43.8,0,0,1-4.88-2.33A42.19,42.19,0,0,0,377.47,203.56Z" fill="#fffdff" opacity="0.2"/><ellipse cx="348.94" cy="179.55" rx="16.77" ry="51.18" transform="matrix(0.39, -0.92, 0.92, 0.39, 48.11, 431.53)" fill="#e7e6e9"/><ellipse cx="348.94" cy="179.55" rx="11.76" ry="42.36" transform="translate(48.11 431.53) rotate(-67.18)" fill="#cbcacb"/><g opacity="0.2"><path d="M403.73,229.86a3.37,3.37,0,0,1-.32-.17,2.24,2.24,0,0,1-.71-3.09c6.57-10.52-1.45-16.3-1.8-16.54a2.25,2.25,0,0,1,2.58-3.68c.12.08,11.82,8.51,3,22.6A2.25,2.25,0,0,1,403.73,229.86Z" fill="#fffdff"/></g><path d="M310.07,166.55c2.58,6.5,16.3,16.26,34.31,23.84,13.87,5.84,26.89,9,35.09,8.84a1.23,1.23,0,0,0-.23-.11c-7.55-2.91-23.54-14.31-29.61-27-3.49-7.3-3.51-20.4-8.27-21.52s-4.07,9.29-4.07,9.29a16.92,16.92,0,0,1-3.65-9.43c-.27-5.57,1.83-14.44-3.36-16.91s-6,3.87-8.58,5.87-3.62-3.25-4.46-8.91-1.58-13.1-7.62-12.44-5.84,14.3-4.58,26.73A88,88,0,0,0,310.07,166.55Z" fill="#6f4c61"/><circle cx="294.76" cy="148" r="4.83" fill="#6f4c61"/><path d="M360.41,153a4,4,0,1,1-4-4A4,4,0,0,1,360.41,153Z" fill="#6f4c61"/><path d="M339.72,123a3,3,0,1,1-3-3A3,3,0,0,1,339.72,123Z" fill="#6f4c61"/><path d="M306.56,71.86a4,4,0,1,1-4-4A4,4,0,0,1,306.56,71.86Z" fill="#6f4c61"/><path d="M323,96.36A6.39,6.39,0,1,1,316.57,90,6.39,6.39,0,0,1,323,96.36Z" fill="#6f4c61"/><path d="M307.66,140.47S306.3,133,307,128.41s2.36-6.44,3.72-4.27.28,10.72,0,14.16S308.45,143.63,307.66,140.47Z" fill="#fffdff" opacity="0.3"/><circle cx="309.76" cy="147.81" r="1.64" fill="#fffdff" opacity="0.3"/><path d="M321.31,143.91c.14-.21,3.08-5.12,4.83-4.28s.7,4.25-2.41,6.54S320.18,145.57,321.31,143.91Z" fill="#fffdff" opacity="0.3"/><path d="M345.42,168.8a37.93,37.93,0,0,0,3.52,7.63c1.95,2.88,3.56,4.21,1.53,6.11s-4.77-1.76-6.52-6.17-3.5-10.17-1.75-11.22S344.42,166.13,345.42,168.8Z" fill="#fffdff" opacity="0.3"/><path d="M343.13,159.7s.84-3.15-.23-4.13-1.87-.42-2.24,1.87S342.32,161.78,343.13,159.7Z" fill="#fffdff" opacity="0.3"/><circle cx="292.63" cy="146.9" r="1.75" fill="#fffdff" opacity="0.3"/><circle cx="301.82" cy="70.37" r="1.26" fill="#fffdff" opacity="0.3"/><path d="M317.38,94.58A2.42,2.42,0,1,1,315,92.16,2.42,2.42,0,0,1,317.38,94.58Z" fill="#fffdff" opacity="0.3"/><path d="M337,122a1,1,0,1,1-1-1A1,1,0,0,1,337,122Z" fill="#fffdff" opacity="0.3"/><path d="M356.64,151.76a1.37,1.37,0,1,1-1.37-1.37A1.37,1.37,0,0,1,356.64,151.76Z" fill="#fffdff" opacity="0.3"/><path d="M208.48,65.69H168.64a4.78,4.78,0,0,0-4.77,4.77V98a4.78,4.78,0,0,0,4.77,4.77h15.48l4.44,7.69,4.44-7.69h15.48A4.77,4.77,0,0,0,213.25,98V70.46A4.77,4.77,0,0,0,208.48,65.69Z" fill="#fffdff"/><path d="M201.62,73.5a9.23,9.23,0,0,0-13.06,0A9.23,9.23,0,0,0,175.5,86.56l13.06,13.06,13.06-13.06A9.23,9.23,0,0,0,201.62,73.5Z" fill="#69e2a8"/><path d="M437.85,249.32H385.06a8,8,0,0,0-8,8v26.23a8,8,0,0,0,8,8h5v9.78l9.78-9.78h38a8,8,0,0,0,8-8V257.35A8,8,0,0,0,437.85,249.32Z" fill="#fffdff"/><path d="M399.24,270.45a4.91,4.91,0,1,1-4.91-4.92A4.91,4.91,0,0,1,399.24,270.45Z" fill="#545172"/><circle cx="411.45" cy="270.45" r="4.91" fill="#545172"/><path d="M433.49,270.45a4.92,4.92,0,1,1-4.92-4.92A4.91,4.91,0,0,1,433.49,270.45Z" fill="#545172"/><path d="M133.13,27.44h-3.58V23.86a3.29,3.29,0,0,0-6.57,0v3.58H119.4a3.29,3.29,0,1,0,0,6.57H123V37.6a3.29,3.29,0,0,0,6.57,0V34h3.58a3.29,3.29,0,0,0,0-6.57Z" fill="#ffc672"/><path d="M471.13,153.73h-3.58v-3.58a3.29,3.29,0,0,0-6.57,0v3.58H457.4a3.29,3.29,0,1,0,0,6.57H461v3.58a3.29,3.29,0,1,0,6.57,0V160.3h3.58a3.29,3.29,0,0,0,0-6.57Z" fill="#ffc672"/><path d="M190,385.79h-3.59v-3.58a3.29,3.29,0,1,0-6.57,0v3.58h-3.58a3.29,3.29,0,0,0,0,6.57h3.58v3.58a3.29,3.29,0,1,0,6.57,0v-3.58H190a3.29,3.29,0,0,0,0-6.57Z" fill="#ffc672"/><path d="M24.93,192.14a3.55,3.55,0,1,1-3.55-3.55A3.54,3.54,0,0,1,24.93,192.14Z" fill="#cddbf0"/><path d="M242.69,96.36a3.55,3.55,0,1,1-3.54-3.55A3.54,3.54,0,0,1,242.69,96.36Z" fill="#fffdff"/><path d="M234.35,351.26a3.55,3.55,0,1,1-3.55-3.55A3.55,3.55,0,0,1,234.35,351.26Z" fill="#fffdff"/><circle cx="459.12" cy="109.93" r="3.55" fill="#fffdff"/><path d="M244.81,391.24a2.17,2.17,0,1,1-2.17-2.16A2.17,2.17,0,0,1,244.81,391.24Z" fill="#cddbf0"/><path d="M459,194.31a2.17,2.17,0,1,1-2.17-2.16A2.17,2.17,0,0,1,459,194.31Z" fill="#fffdff"/><path d="M61.42,220.87a2.17,2.17,0,1,1-2.17-2.17A2.17,2.17,0,0,1,61.42,220.87Z" fill="#fffdff"/><path d="M372.18,69.11A2.17,2.17,0,1,1,370,66.94,2.17,2.17,0,0,1,372.18,69.11Z" fill="#fffdff"/><path d="M167.33,118.7a2.17,2.17,0,1,1-2.17-2.16A2.17,2.17,0,0,1,167.33,118.7Z" fill="#fffdff"/><path d="M440.77,351.26a2.72,2.72,0,1,1-2.71-2.71A2.72,2.72,0,0,1,440.77,351.26Z" fill="#cddbf0"/><path d="M503.21,109a3.46,3.46,0,1,1-3.46-3.46A3.46,3.46,0,0,1,503.21,109Z" fill="#cddbf0"/><line x1="257.74" y1="36.53" x2="273.53" y2="20.75" fill="none" stroke="#cddbf0" stroke-linecap="round" stroke-miterlimit="10" stroke-width="6.73"/><line x1="499.75" y1="223.81" x2="510.18" y2="213.38" fill="none" stroke="#cddbf0" stroke-linecap="round" stroke-miterlimit="10" stroke-width="6.73"/><line x1="369.17" y1="389.08" x2="392.14" y2="366.1" fill="none" stroke="#cddbf0" stroke-linecap="round" stroke-miterlimit="10" stroke-width="6.73"/><line x1="15.93" y1="266.66" x2="26.3" y2="256.29" fill="none" stroke="#cddbf0" stroke-linecap="round" stroke-miterlimit="10" stroke-width="6.73"/><circle cx="59.03" cy="117.81" r="44.6" fill="#f7f7f7"/><circle cx="63.81" cy="115.26" r="44.6" fill="#69e2a8"/><polyline points="40.16 120.95 69.26 132.65 88.77 85.2" fill="none" stroke="#fff" stroke-miterlimit="10" stroke-width="3"/><path d="M112.09,147A60.35,60.35,0,0,1,8.6,85.2" fill="none" stroke="#60f4a9" stroke-miterlimit="10" stroke-width="3"/><path d="M32.33,61a60.36,60.36,0,0,1,89.84,52.64" fill="none" stroke="#60f4a9" stroke-miterlimit="10" stroke-width="3"/></g></g></svg>