<svg xmlns="http://www.w3.org/2000/svg" viewBox="0 0 107.67 98.94"><title>pedagogy</title><g id="Layer_2" data-name="Layer 2"><g id="areas"><path d="M105.56,0H63.34a2.11,2.11,0,0,0,0,4.21h40.12V11H4.21V4.21H44.33a2.11,2.11,0,0,0,0-4.21H2.1A2.1,2.1,0,0,0,0,2.1v11a2.1,2.1,0,0,0,2.1,2.11H5V71.53a9.54,9.54,0,0,0,9.53,9.53H51.73v4a7.11,7.11,0,1,0,4.21,0v-4H93.11a9.54,9.54,0,0,0,9.54-9.53V15.25h2.91a2.1,2.1,0,0,0,2.11-2.11V2.1A2.1,2.1,0,0,0,105.56,0ZM53.83,94.73a2.91,2.91,0,1,1,2.91-2.9,2.9,2.9,0,0,1-2.91,2.9Zm44.61-23.2a5.33,5.33,0,0,1-5.33,5.33H14.55a5.33,5.33,0,0,1-5.32-5.33V15.25H98.44Z" fill="#0c151e"/><path d="M52.63,3.85a2.1,2.1,0,0,0,3.14-2.46,2.1,2.1,0,1,0-3.14,2.46Z" fill="#0c151e"/><path d="M33.08,65.89a8.3,8.3,0,0,0,8-10.65l4-2.73a13.18,13.18,0,0,0,18.17,2.93l1.16,1.26a10.26,10.26,0,1,0,3.15-2.78l-1.3-1.41a13.18,13.18,0,0,0,.65-14.76l2.65-2.35A8.55,8.55,0,1,0,65,27.83a8.44,8.44,0,0,0,1.44,4.73l-2.25,2a13.15,13.15,0,0,0-15.63-1l-4.15-4.72A6.14,6.14,0,0,0,45,24.6a6.28,6.28,0,1,0-6.14,7.57,5.81,5.81,0,0,0,1.3-.14,6.27,6.27,0,0,0,1.14-.35l4.12,4.68a13.14,13.14,0,0,0-2.93,8.29,12.94,12.94,0,0,0,.65,4.1l-4.24,2.89a8.3,8.3,0,1,0-5.78,14.25Zm45.6-3a6.07,6.07,0,1,1-6.07-6.07A6.08,6.08,0,0,1,78.68,62.85ZM73.5,23.48a4.35,4.35,0,1,1-4.34,4.35A4.35,4.35,0,0,1,73.5,23.48ZM64.63,44.65a9,9,0,1,1-9-9A9,9,0,0,1,64.63,44.65ZM36.8,26.32a2,2,0,0,1,.29-1.55,2,2,0,0,1,1.3-.9,2.15,2.15,0,0,1,.43,0,2.07,2.07,0,1,1-2,2.49ZM33.08,53.5A4.09,4.09,0,1,1,29,57.59,4.09,4.09,0,0,1,33.08,53.5Z" fill="#0c151e"/></g></g></svg>