<svg xmlns="http://www.w3.org/2000/svg" viewBox="0 0 407 150"><title>title</title><g id="Layer_2" data-name="Layer 2"><g id="city"><rect width="407" height="150" fill="#15749e" opacity="0.07"/><path d="M87.74,45.73a9.12,9.12,0,0,1,.67-3.52,9,9,0,0,1,1.82-2.85,8.3,8.3,0,0,1,2.69-1.91,8.4,8.4,0,0,1,6.67,0,8.6,8.6,0,0,1,2.71,1.91,8.87,8.87,0,0,1,1.85,2.85,9.3,9.3,0,0,1,.66,3.52V81a24.57,24.57,0,0,1-2.14,10.61,20.85,20.85,0,0,1-6,7.57,26.18,26.18,0,0,1-9.13,4.55A41.64,41.64,0,0,1,76,105.22a42.24,42.24,0,0,1-11.48-1.49,26.6,26.6,0,0,1-9.11-4.49,20.55,20.55,0,0,1-6-7.55A24.77,24.77,0,0,1,47.21,81V45.73a9.27,9.27,0,0,1,2.48-6.37,8.52,8.52,0,0,1,2.69-1.91,8.43,8.43,0,0,1,6.68,0,8.71,8.71,0,0,1,2.71,1.91,8.85,8.85,0,0,1,1.84,2.85,9.12,9.12,0,0,1,.67,3.52l0,35a14.44,14.44,0,0,0,1,5.7A11,11,0,0,0,68,90.31a10.44,10.44,0,0,0,3.73,2.26A12.71,12.71,0,0,0,76,93.3a12.92,12.92,0,0,0,4.31-.73A10.79,10.79,0,0,0,84,90.31a11.28,11.28,0,0,0,2.69-3.91,14.26,14.26,0,0,0,1-5.7Z" fill="#17e08e"/><path d="M131.31,65.42a18.15,18.15,0,0,1,6.63-6.51,18.81,18.81,0,0,1,9.52-2.37,16.46,16.46,0,0,1,7.3,1.66,17.23,17.23,0,0,1,5.86,4.72,22.62,22.62,0,0,1,3.89,7.4,31.5,31.5,0,0,1,1.4,9.73,32.51,32.51,0,0,1-1.26,9.09A25.92,25.92,0,0,1,161,96.82a18.43,18.43,0,0,1-5.73,5.34,14.62,14.62,0,0,1-7.62,2,18.23,18.23,0,0,1-16.38-9.61q0,4.36-1.77,6.71t-5.86,2.35q-3.87,0-5.46-2.35a12,12,0,0,1-1.58-6.71V45.91a12,12,0,0,1,1.58-6.71q1.59-2.36,5.46-2.35,4.09,0,5.86,2.35t1.77,6.71ZM131.36,80a40.32,40.32,0,0,0,.48,6.6,13.54,13.54,0,0,0,1.66,4.81,7.78,7.78,0,0,0,3.15,2.95,11,11,0,0,0,5,1A7.69,7.69,0,0,0,146.24,94a8.75,8.75,0,0,0,2.86-3.43,17,17,0,0,0,1.45-4.87A38.59,38.59,0,0,0,151,80.1a32.82,32.82,0,0,0-.44-5.38A15.36,15.36,0,0,0,149,70a8.8,8.8,0,0,0-2.94-3.31,8.31,8.31,0,0,0-4.72-1.24,9.63,9.63,0,0,0-4.8,1.08,8.51,8.51,0,0,0-3.09,3,12.92,12.92,0,0,0-1.63,4.58A34.16,34.16,0,0,0,131.36,80Z" fill="#fff"/><path d="M172.4,80.42A26.63,26.63,0,0,1,174,71.2a21.16,21.16,0,0,1,4.78-7.62,23,23,0,0,1,8-5.2,30.32,30.32,0,0,1,11.29-1.93,31.13,31.13,0,0,1,11,1.8,22.69,22.69,0,0,1,8.05,5,21.08,21.08,0,0,1,5,7.59,26.24,26.24,0,0,1,1.7,9.59,25.65,25.65,0,0,1-1.61,9.13,21,21,0,0,1-4.83,7.55,23.18,23.18,0,0,1-8,5.15,30.26,30.26,0,0,1-11.23,1.91A31.38,31.38,0,0,1,187,102.35a22.91,22.91,0,0,1-8.05-5A20.71,20.71,0,0,1,174,89.78,26.31,26.31,0,0,1,172.4,80.42Zm15.32,0a29.84,29.84,0,0,0,.55,5.78,15.28,15.28,0,0,0,1.78,4.8,9.32,9.32,0,0,0,3.19,3.29,9,9,0,0,0,4.83,1.22,8.79,8.79,0,0,0,7.8-4.18,15,15,0,0,0,1.91-4.77,27.16,27.16,0,0,0,.65-6.14,28.22,28.22,0,0,0-.58-5.77A15.5,15.5,0,0,0,206,69.82a9.59,9.59,0,0,0-3.19-3.32,8.9,8.9,0,0,0-4.77-1.22,9,9,0,0,0-4.78,1.2,9.43,9.43,0,0,0-3.22,3.27,15.06,15.06,0,0,0-1.8,4.83A30.39,30.39,0,0,0,187.72,80.42Z" fill="#fff"/><path d="M259.77,73.34c0-2.58-.68-4.4-2-5.48a8.69,8.69,0,0,0-5.5-1.61,31.23,31.23,0,0,0-3.87.23c-1.19.16-2.32.35-3.38.58s-2.06.46-3,.71l-2.72.69a7.72,7.72,0,0,1-1.88.28,4.22,4.22,0,0,1-2.74-1A3.35,3.35,0,0,1,233.41,65a5.21,5.21,0,0,1,.87-3,8.07,8.07,0,0,1,2.37-2.23,15.08,15.08,0,0,1,3.48-1.57,32.44,32.44,0,0,1,4.16-1c1.46-.24,3-.42,4.49-.53s3-.16,4.41-.16a31.1,31.1,0,0,1,8.1,1,15.76,15.76,0,0,1,6.33,3.29,15.52,15.52,0,0,1,4.14,6A24.61,24.61,0,0,1,273.25,76v18.4a24,24,0,0,1-.23,3.45,8.6,8.6,0,0,1-.92,2.94,5.18,5.18,0,0,1-2,2,6.65,6.65,0,0,1-3.41.76,5.67,5.67,0,0,1-4.9-2.18,10.5,10.5,0,0,1-1.59-6.24,15.22,15.22,0,0,1-2.92,4,15.87,15.87,0,0,1-3.79,2.78,18.1,18.1,0,0,1-4.4,1.61,20.74,20.74,0,0,1-4.71.53,18.39,18.39,0,0,1-6-.94,14.34,14.34,0,0,1-4.76-2.67,12.4,12.4,0,0,1-3.13-4.14A12.65,12.65,0,0,1,229.41,91a14,14,0,0,1,1.74-7.17A13.37,13.37,0,0,1,236.24,79a25.77,25.77,0,0,1,8.14-2.76,62.13,62.13,0,0,1,11-.88h4.41Zm0,8.83q-3.14-.09-6.21.09a22.45,22.45,0,0,0-5.53,1,9.5,9.5,0,0,0-3.93,2.37,5.86,5.86,0,0,0-1.49,4.23,6.13,6.13,0,0,0,2.09,4.74A6.71,6.71,0,0,0,247,95.93a9.46,9.46,0,0,0,3,.46,9.89,9.89,0,0,0,3.89-.76A8.58,8.58,0,0,0,257,93.42a10.55,10.55,0,0,0,2-3.54,14.51,14.51,0,0,0,.74-4.81Z" fill="#fff"/><path d="M298.74,94.55q0,4.36-1.77,6.71t-5.86,2.35q-3.87,0-5.46-2.35a12,12,0,0,1-1.58-6.71V64.18a6.74,6.74,0,0,1,.62-3,6,6,0,0,1,1.65-2.12,7.73,7.73,0,0,1,2.37-1.28,8.49,8.49,0,0,1,2.81-.46,6.48,6.48,0,0,1,5.41,2.3q1.81,2.29,1.81,6.85a12,12,0,0,1,3.78-7.29,11.12,11.12,0,0,1,7.68-2.65,6.14,6.14,0,0,1,2.53.49,5.46,5.46,0,0,1,1.84,1.26,5.05,5.05,0,0,1,1.1,1.8,5.76,5.76,0,0,1,.37,2,4.92,4.92,0,0,1-2,4.35,11,11,0,0,1-5.5,1.63,16.86,16.86,0,0,0-3.84.78,8.83,8.83,0,0,0-3.09,1.77,8.28,8.28,0,0,0-2.07,3,12,12,0,0,0-.76,4.51Z" fill="#fff"/><path d="M354.32,45.87a11.94,11.94,0,0,1,1.59-6.72c1.06-1.56,2.88-2.35,5.45-2.35,2.73,0,4.69.79,5.87,2.35S369,43,369,45.87V94.55q0,4.36-1.77,6.71t-5.87,2.35q-3.86,0-5.45-2.35a11.9,11.9,0,0,1-1.59-6.71,18.27,18.27,0,0,1-6.92,7.36,19.34,19.34,0,0,1-9.5,2.25,15,15,0,0,1-7.55-1.91,17.84,17.84,0,0,1-5.73-5.2A24.57,24.57,0,0,1,321,89.37a33.63,33.63,0,0,1-1.27-9.32,32.41,32.41,0,0,1,1.34-9.57,23.07,23.07,0,0,1,3.75-7.43,16.59,16.59,0,0,1,13.41-6.51,18.91,18.91,0,0,1,9.27,2.3,18.62,18.62,0,0,1,6.83,6.58Zm-10,19.6a8.6,8.6,0,0,0-4.62,1.15,8.49,8.49,0,0,0-3,3.15,15.65,15.65,0,0,0-1.59,4.67,32,32,0,0,0-.48,5.66,39,39,0,0,0,.37,5.34,17,17,0,0,0,1.38,4.92A9.61,9.61,0,0,0,339.21,94a7.35,7.35,0,0,0,4.71,1.43,11.13,11.13,0,0,0,4.81-.92,7.53,7.53,0,0,0,3.18-2.83,13.49,13.49,0,0,0,1.75-4.83,39.44,39.44,0,0,0,.52-6.88,31.7,31.7,0,0,0-.5-5.93A13.76,13.76,0,0,0,352,69.45a8,8,0,0,0-3-3A9.7,9.7,0,0,0,344.29,65.47Z" fill="#fff"/></g></g></svg>